<svg xmlns="http://www.w3.org/2000/svg" version="1.1" xmlns:xlink="http://www.w3.org/1999/xlink" xmlns:svgjs="http://svgjs.dev/svgjs" width="1000" height="1000" viewBox="0 0 1000 1000"><rect width="1000" height="1000" fill="#a62a6c"></rect><g transform="matrix(0.7,0,0,0.7,149.57575757575756,282.1265587044535)"><svg viewBox="0 0 396 247" data-background-color="#a62a6c" preserveAspectRatio="xMidYMid meet" height="623" width="1000" xmlns="http://www.w3.org/2000/svg" xmlns:xlink="http://www.w3.org/1999/xlink"><g id="tight-bounds" transform="matrix(1,0,0,1,0.2400000000000091,-0.09999999999999432)"><svg viewBox="0 0 395.52 247.2" height="247.2" width="395.52"><g><svg></svg></g><g><svg viewBox="0 0 395.52 247.2" height="247.2" width="395.52"><mask id="400c2bfd-c367-4764-8919-8163536ce9a7"><rect width="640" height="400" fill="white"></rect><g transform="matrix(1,0,0,1,39.55199999999999,54.850830377639)"><svg viewBox="0 0 316.416 137.498339244722" height="137.498339244722" width="316.416"><g><svg viewBox="0 0 316.416 137.498339244722" height="137.498339244722" width="316.416"><g><svg viewBox="0 0 316.416 137.498339244722" height="137.498339244722" width="316.416"><g><svg viewBox="0 0 316.416 137.498339244722" height="137.498339244722" width="316.416"><g id="SvgjsG1078"><svg viewBox="0 0 316.416 137.498339244722" height="137.498339244722" width="316.416" id="SvgjsSvg1077"><g><svg viewBox="0 0 316.416 105.54782458662834" height="105.54782458662834" width="316.416"><g transform="matrix(1,0,0,1,0,0)"><svg width="316.416" viewBox="-0.2999999523162842 -42.79999923706055 140.08999633789062 47.39999771118164" height="105.54782458662834" data-palette-color="#ffffff"><path d="M8.35-34.05L8.35-26 18.2-26 18.2-22.1 8.35-22.1 8.35-10.1Q8.35-8.15 8.65-6.88 8.95-5.6 9.55-4.88 10.15-4.15 11.05-3.85 11.95-3.55 13.15-3.55L13.15-3.55Q15.25-3.55 16.53-4.03 17.8-4.5 18.3-4.7L18.3-4.7 19.2-0.85Q18.5-0.5 16.75 0.03 15 0.55 12.75 0.55L12.75 0.55Q10.1 0.55 8.38-0.13 6.65-0.8 5.6-2.15 4.55-3.5 4.13-5.48 3.7-7.45 3.7-10.05L3.7-10.05 3.7-33.25 8.35-34.05ZM33.7-26.55L33.7-26.55Q34.3-26.55 35.07-26.48 35.85-26.4 36.6-26.28 37.35-26.15 37.97-26.03 38.6-25.9 38.9-25.8L38.9-25.8 38.1-21.75Q37.55-21.95 36.27-22.23 35-22.5 33-22.5L33-22.5Q31.7-22.5 30.42-22.23 29.15-21.95 28.75-21.85L28.75-21.85 28.75 0 24.1 0 24.1-24.9Q25.75-25.5 28.2-26.03 30.65-26.55 33.7-26.55ZM52.2-3.35L52.2-3.35Q53.85-3.35 55.12-3.43 56.4-3.5 57.25-3.7L57.25-3.7 57.25-11.45Q56.75-11.7 55.62-11.88 54.5-12.05 52.9-12.05L52.9-12.05Q51.85-12.05 50.67-11.9 49.5-11.75 48.52-11.28 47.55-10.8 46.9-9.98 46.25-9.15 46.25-7.8L46.25-7.8Q46.25-5.3 47.85-4.33 49.45-3.35 52.2-3.35ZM51.8-26.65L51.8-26.65Q54.6-26.65 56.52-25.93 58.45-25.2 59.62-23.88 60.8-22.55 61.3-20.73 61.8-18.9 61.8-16.7L61.8-16.7 61.8-0.45Q61.2-0.35 60.12-0.18 59.05 0 57.7 0.15 56.34 0.3 54.77 0.43 53.2 0.55 51.65 0.55L51.65 0.55Q49.45 0.55 47.6 0.1 45.75-0.35 44.4-1.33 43.05-2.3 42.3-3.9 41.55-5.5 41.55-7.75L41.55-7.75Q41.55-9.9 42.42-11.45 43.3-13 44.8-13.95 46.3-14.9 48.3-15.35 50.3-15.8 52.5-15.8L52.5-15.8Q53.2-15.8 53.95-15.73 54.7-15.65 55.37-15.53 56.05-15.4 56.55-15.3 57.05-15.2 57.25-15.15L57.25-15.15 57.25-16.45Q57.25-17.6 57-18.73 56.75-19.85 56.09-20.73 55.45-21.6 54.32-22.13 53.2-22.65 51.4-22.65L51.4-22.65Q49.1-22.65 47.37-22.33 45.65-22 44.8-21.65L44.8-21.65 44.25-25.5Q45.15-25.9 47.25-26.28 49.35-26.65 51.8-26.65ZM80.79 0.6L80.79 0.6Q77.64 0.6 75.27-0.4 72.89-1.4 71.27-3.2 69.64-5 68.84-7.48 68.04-9.95 68.04-12.95L68.04-12.95Q68.04-15.95 68.92-18.45 69.79-20.95 71.39-22.78 72.99-24.6 75.32-25.63 77.64-26.65 80.49-26.65L80.49-26.65Q82.24-26.65 83.99-26.35 85.74-26.05 87.34-25.4L87.34-25.4 86.29-21.45Q85.24-21.95 83.87-22.25 82.49-22.55 80.94-22.55L80.94-22.55Q77.04-22.55 74.97-20.1 72.89-17.65 72.89-12.95L72.89-12.95Q72.89-10.85 73.37-9.1 73.84-7.35 74.87-6.1 75.89-4.85 77.49-4.17 79.09-3.5 81.39-3.5L81.39-3.5Q83.24-3.5 84.74-3.85 86.24-4.2 87.09-4.6L87.09-4.6 87.74-0.7Q87.34-0.45 86.59-0.23 85.84 0 84.89 0.18 83.94 0.35 82.87 0.48 81.79 0.6 80.79 0.6ZM102.14-14.3L102.14-14.3Q103.64-13.15 105.32-11.45 106.99-9.75 108.62-7.78 110.24-5.8 111.69-3.78 113.14-1.75 114.14 0L114.14 0 108.69 0Q107.64-1.75 106.27-3.58 104.89-5.4 103.39-7.08 101.89-8.75 100.34-10.15 98.79-11.55 97.39-12.5L97.39-12.5 97.39 0 92.74 0 92.74-38 97.39-38.8 97.39-15.1Q98.59-16.3 100.04-17.75 101.49-19.2 102.89-20.7 104.29-22.2 105.54-23.58 106.79-24.95 107.69-26L107.69-26 113.14-26Q111.99-24.75 110.64-23.25 109.29-21.75 107.84-20.23 106.39-18.7 104.92-17.18 103.44-15.65 102.14-14.3ZM128.84 0.6L128.84 0.6Q125.69 0.6 123.31-0.4 120.94-1.4 119.31-3.2 117.69-5 116.89-7.48 116.09-9.95 116.09-12.95L116.09-12.95Q116.09-15.95 116.96-18.45 117.84-20.95 119.44-22.78 121.04-24.6 123.36-25.63 125.69-26.65 128.54-26.65L128.54-26.65Q130.29-26.65 132.04-26.35 133.79-26.05 135.39-25.4L135.39-25.4 134.34-21.45Q133.29-21.95 131.91-22.25 130.54-22.55 128.99-22.55L128.99-22.55Q125.09-22.55 123.01-20.1 120.94-17.65 120.94-12.95L120.94-12.95Q120.94-10.85 121.41-9.1 121.89-7.35 122.91-6.1 123.94-4.85 125.54-4.17 127.14-3.5 129.44-3.5L129.44-3.5Q131.29-3.5 132.79-3.85 134.29-4.2 135.14-4.6L135.14-4.6 135.79-0.7Q135.39-0.45 134.64-0.23 133.89 0 132.94 0.18 131.99 0.35 130.91 0.48 129.84 0.6 128.84 0.6Z" opacity="1" transform="matrix(1,0,0,1,0,0)" fill="black" class="wordmark-text-0" id="SvgjsPath1076" stroke-width="7" stroke="black" stroke-linejoin="round"></path></svg></g></svg></g><g transform="matrix(1,0,0,1,3.5,126.70605615003883)"><svg viewBox="0 0 309.416 10.792283094683167" height="10.792283094683167" width="309.416"><g transform="matrix(1,0,0,1,0,0)"><svg width="309.416" viewBox="-4.290000021457672 -38.86000061035156 1201.1300048828125 42.65999984741211" height="10.792283094683167" data-palette-color="#ffffff"><path d="M-0.29-24.71L-0.29-24.71-0.29-33.5 28.13-33.5Q28.52-33.42 28.61-33.19 28.71-32.96 28.71-32.52L28.71-32.52 28.71-24.71Q28.66-24.12 28.03-24.12L28.03-24.12 21.09-24.12 21.09-1.66Q21.09-1.64 21.07-1.54 21.04-1.44 21.04-1.42 21.04-1.39 21.02-1.32 21-1.25 20.97-1.22 20.95-1.2 20.92-1.14 20.9-1.07 20.86-1.06 20.83-1.05 20.76-1.01 20.7-0.98 20.64-0.95 20.58-0.93 20.5-0.92 20.41-0.9 20.31-0.88L20.31-0.88 18.75-0.88Q15.63-0.88 15.63-1.07L15.63-1.07Q15.43-1.07 15.04-1.05 14.65-1.03 14.45-1.03L14.45-1.03 12.5-1.03Q11.94-1.03 10.9-1 9.86-0.98 9.28-0.98L9.28-0.98 7.91-0.98 6.93-1.66 6.93-6.93Q6.96-8.35 7.14-12.99 7.32-17.63 7.32-20.31L7.32-20.31 7.32-20.95Q7.32-21.14 7.35-21.56 7.37-21.97 7.37-22.17L7.37-22.17Q7.37-22.39 7.35-23.06 7.32-23.73 7.32-23.93L7.32-23.93 1.22-23.93Q0.68-23.93 0.2-24.11-0.29-24.29-0.29-24.71ZM30.76-0.98L30.76-33.59 35.3-33.59Q37.4-33.59 42.01-33.69 46.63-33.79 48.92-33.79L48.92-33.79Q50.9-33.79 52.62-33.57 54.34-33.35 56.02-32.76 57.69-32.18 58.87-31.27 60.06-30.37 60.79-28.89 61.52-27.42 61.52-25.49L61.52-25.49Q61.52-22.83 60.28-20.95 59.03-19.07 56.44-17.77L56.44-17.77Q57.47-17.33 58.23-16.63 58.98-15.92 59.38-15.41 59.79-14.89 60.17-13.68 60.54-12.48 60.62-12.1 60.69-11.72 60.94-10.23L60.94-10.23Q61.01-9.89 61.03-9.72L61.03-9.72Q61.13-8.74 61.86-6.14 62.6-3.54 62.6-2.15L62.6-2.15Q62.6-1.27 62.06-1.27L62.06-1.27Q60.59-1.27 57.63-1.25 54.66-1.22 53.22-1.22L53.22-1.22Q52.63-1.27 51.46-1.27L51.46-1.27 49.8-1.27Q49.31-1.42 48.85-2.78 48.39-4.15 48.19-5.86L48.19-5.86 47.65-10.21Q47.51-10.74 47.42-10.97 47.34-11.21 47.12-11.54 46.9-11.87 46.52-11.99 46.14-12.11 45.55-12.11L45.55-12.11 44.43-12.11 44.43-2.34Q44.43-2.27 44.43-2.11 44.43-1.95 44.43-1.89 44.43-1.83 44.43-1.71 44.43-1.59 44.41-1.53 44.38-1.46 44.36-1.37 44.33-1.27 44.3-1.23 44.26-1.2 44.2-1.14 44.14-1.07 44.05-1.05 43.97-1.03 43.86-1 43.75-0.98 43.6-0.98L43.6-0.98 30.76-0.98ZM44.58-20.7L44.58-20.7Q44.63-20.65 44.72-20.5 44.82-20.34 44.92-20.24 45.02-20.14 45.11-20.12L45.11-20.12Q45.85-20.12 46.58-20.28 47.31-20.43 48.08-20.8 48.85-21.17 49.33-21.92 49.8-22.68 49.8-23.73L49.8-23.73Q49.8-26.27 44.92-26.27L44.92-26.27Q44.43-26.15 44.43-25.88L44.43-25.88 44.43-24.95Q44.43-24.24 44.5-22.83 44.58-21.41 44.58-20.7ZM83.74-6.05L76.22-6.05Q76.04-5.49 75.89-4.58 75.73-3.66 75.59-3.14 75.46-2.61 75.14-2.04 74.82-1.46 74.18-1.2 73.53-0.93 72.5-0.93L72.5-0.93 61.96-0.93 61.96-1.76Q63.25-5.64 65.73-13.67 68.21-21.7 69.58-25.83L69.58-25.83 69.58-25.78Q70.41-28.15 72.02-33.2L72.02-33.2Q72.04-33.25 72.09-33.33L72.09-33.33Q72.31-33.69 72.5-33.89L72.5-33.89 85.69-33.79Q89.06-33.79 89.4-33.2L89.4-33.2 89.4-32.57Q89.45-32.35 89.94-31.45L89.94-31.45Q92.3-24.19 93.4-20.9L93.4-20.9 93.4-20.61Q93.5-19.9 93.84-18.99 94.18-18.09 94.66-17.05 95.14-16.02 95.33-15.43L95.33-15.43 96.31-11.91Q97.16-9.08 98.82-4.35L98.82-4.35 98.82-4.39 98.82-3.91Q98.9-3.56 99.19-2.98 99.48-2.39 99.56-2.15L99.56-2.15Q99.56-1.46 99.27-1.27 98.99-1.07 98.19-1.07L98.19-1.07 86.86-1.07Q86.45-1.12 86.32-1.15 86.2-1.17 85.94-1.25 85.69-1.32 85.58-1.44 85.47-1.56 85.44-1.76L85.44-1.76 84.52-5.47Q84.42-5.93 84.32-5.99 84.22-6.05 83.74-6.05L83.74-6.05ZM77.39-14.65L77.39-14.75 77.39-14.65ZM82.76-17.68L82.76-17.68Q82.61-18.36 82.33-19.89 82.05-21.41 81.78-22.55 81.51-23.68 81.2-24.66L81.2-24.66 81.2-25.83Q81-26.34 80.51-26.56L80.51-26.56 80.51-26.51Q79.93-26.39 79.34-23.24L79.34-23.24 79.34-22.07Q79.29-21.9 79.12-21.75 78.95-21.61 78.95-21.58L78.95-21.58Q78.14-18.02 77.63-15.82L77.63-15.82Q77.63-15.58 77.51-14.97 77.39-14.36 77.39-14.26L77.39-14.26 83.44-14.26Q83.44-14.89 83-16.55L83-16.55 83-17.09Q82.98-17.16 82.87-17.37 82.76-17.58 82.76-17.68ZM116.69-0.2L116.69-0.2Q112.61-0.2 109.37-1.57 106.12-2.95 104.05-5.4 101.97-7.84 100.88-11.1 99.8-14.36 99.8-18.21L99.8-18.21 99.8-18.55Q99.82-18.73 99.88-19.4 99.94-20.07 99.96-20.28 99.97-20.48 100.04-21.07 100.11-21.66 100.16-21.92 100.21-22.19 100.3-22.71 100.38-23.22 100.49-23.55 100.6-23.88 100.75-24.34 100.9-24.8 101.07-25.22 101.24-25.63 101.46-26.07L101.46-26.07 101.46-26.03Q102.58-28.37 104.29-30.08 106-31.79 108.05-32.73 110.1-33.67 112.25-34.09 114.4-34.52 116.79-34.52L116.79-34.52Q119.82-34.52 122.26-33.92 124.7-33.33 126.31-32.32 127.92-31.32 129.07-29.9 130.22-28.47 130.8-26.95 131.39-25.44 131.63-23.68L131.63-23.68 131.63-21.58Q131.56-21.24 131.27-21.06 130.97-20.87 130.63-20.84 130.29-20.8 129.68-20.8L129.68-20.8 119.23-20.8 119.23-22.9Q119.11-23.73 118.52-24.41 117.94-25.1 117.08-25.1L117.08-25.1Q116.33-25.1 115.75-24.78 115.18-24.46 114.85-23.94 114.52-23.41 114.31-22.72 114.1-22.02 114.04-21.25 113.98-20.48 113.95-19.69 113.91-18.9 113.96-18.19L113.96-18.19Q113.96-17.7 113.96-17.48L113.96-17.48 113.96-14.75Q113.96-14.14 114.02-13.56 114.08-12.99 114.31-12.08 114.54-11.18 115.13-10.62 115.72-10.06 116.59-10.06L116.59-10.06Q117.52-10.06 117.97-10.84 118.43-11.62 118.73-12.72 119.04-13.82 119.43-14.21L119.43-14.21Q120.4-14.21 122.36-14.18 124.31-14.16 125.29-14.16L125.29-14.16Q125.97-14.16 127.31-14.18 128.65-14.21 129.34-14.21L129.34-14.21 131.14-14.21Q131.95-14.21 132.02-13.23L132.02-13.23 132.02-12.3Q131.49-7.45 128.43-4.47 125.38-1.49 120.79-0.68L120.79-0.68 120.79-0.54Q119.16-0.2 116.69-0.2ZM145.89-0.88L135.59-0.88Q135.15-1.61 135-1.9L135-1.9 135-33.98 145.79-33.98Q145.86-33.98 146.18-34 146.5-34.01 146.67-34 146.84-33.98 147.15-33.96 147.45-33.94 147.65-33.87 147.84-33.81 148.05-33.7 148.26-33.59 148.39-33.4 148.53-33.2 148.57-32.96L148.57-32.96 148.57-22.12Q149.38-23.73 150.83-26.76 152.28-29.79 152.97-31.15L152.97-31.15 154.16-33.72 156.48-33.79Q156.97-33.79 157.96-33.74 158.95-33.69 159.41-33.69L159.41-33.69 161.27-33.69Q161.46-33.69 161.84-33.72 162.22-33.74 162.39-33.74L162.39-33.74 163.81-33.74Q163.91-33.74 164.15-33.79L164.15-33.79Q168.11-33.79 168.11-33.2L168.11-33.2Q168.11-32.86 167.67-32.28L167.67-32.28Q166.54-30.49 163.88-25.77 161.22-21.04 159.58-18.65L159.58-18.65 169.13-2.2Q169.13-2.17 169.13-2.03 169.13-1.88 169.13-1.83 169.13-1.78 169.12-1.67 169.11-1.56 169.08-1.5 169.06-1.44 169.02-1.35 168.98-1.27 168.92-1.21 168.86-1.15 168.79-1.07L168.79-1.07Q166.49-1.22 161.95-1.22L161.95-1.22Q161.34-1.22 160.07-1.2 158.8-1.17 158.19-1.17L158.19-1.17 154.87-1.17 154.87-1.86Q154.48-2.51 153.19-4.44 151.89-6.37 151.31-7.47L151.31-7.47 148.57-12.7 148.57-1.86Q148.23-0.88 145.89-0.88L145.89-0.88ZM202.84-18.8L202.45-21.48Q202.62-22.41 203.39-25.04 204.16-27.66 204.31-29.2L204.31-29.2 204.31-30.91Q204.31-30.96 204.37-31.32 204.43-31.69 204.44-31.76 204.45-31.84 204.51-32.14 204.57-32.45 204.64-32.54 204.7-32.64 204.81-32.86 204.92-33.08 205.04-33.17 205.16-33.25 205.34-33.37 205.53-33.5 205.76-33.54 205.99-33.59 206.26-33.59L206.26-33.59 217.39-33.59Q217.44-33.57 217.69-33.4 217.93-33.23 218.09-33.11 218.25-32.98 218.27-32.91L218.27-32.91 210.09-3.49Q209.82-2.47 209.42-1.77 209.02-1.07 208.51-1.07L208.51-1.07 191.81-1.07Q191.42-2.64 190.9-4.76 190.39-6.88 189.88-9 189.36-11.11 188.97-12.7L188.97-12.7 183.04-32.86Q183.04-33.42 183.85-33.59L183.85-33.59 183.85-33.69Q185.31-33.69 188.28-33.74 191.24-33.79 192.59-33.79L192.59-33.79 196.59-33.79Q196.76-33.79 196.82-33.73 196.88-33.67 196.97-33.48 197.06-33.3 197.2-33.15L197.2-33.15 200.69-12.89 202.84-18.8ZM232.89-0.93L219.51-0.93 219.51-33.01Q219.54-33.2 219.9-33.36 220.27-33.52 220.34-33.59L220.34-33.59 233.48-33.59 233.48-1.81Q233.36-1.29 233.25-1.11 233.14-0.93 232.89-0.93L232.89-0.93ZM237.97-1.81L237.97-31.54Q237.97-33.01 238.09-33.25L238.09-33.25Q238.31-33.59 238.8-33.59L238.8-33.59 239.38-33.59Q239.77-33.59 239.92-33.54L239.92-33.54 241.19-33.54Q243.66-33.54 248.65-33.67 253.64-33.79 256.13-33.79L256.13-33.79 262.63-33.79Q263.26-33.72 263.26-33.15L263.26-33.15 263.26-25Q263.24-24.85 263.18-24.74 263.11-24.63 263.08-24.6 263.04-24.56 262.85-24.43 262.65-24.29 262.58-24.22L262.58-24.22 251.25-24.22 251.25-21.19 252.32-21.19Q253.74-21.19 256.65-21.29 259.55-21.39 261.11-21.39L261.11-21.39Q261.8-21.39 262.04-21.12 262.28-20.85 262.28-20.36L262.28-20.36Q262.28-20.24 262.24-19.95 262.19-19.65 262.19-19.53L262.19-19.53 262.19-18.6Q262.19-18.51 262.21-18.2 262.24-17.9 262.24-17.68L262.24-17.68 262.24-16.99Q262.24-16.46 262.28-15.92 262.33-15.38 262.33-14.99L262.33-14.99 262.33-14.36Q262.21-14.06 262.14-13.96 262.06-13.87 261.89-13.87L261.89-13.87 261.89-13.92Q260.99-13.92 258.78-13.79 256.57-13.67 255.25-13.67L255.25-13.67 251.35-13.67 251.35-10.55Q251.54-10.55 251.93-10.52 252.32-10.5 252.52-10.5L252.52-10.5Q253.62-10.5 255.77-10.57 257.91-10.64 258.87-10.64L258.87-10.64 261.99-10.64Q263.26-10.64 263.6-10.35L263.6-10.35Q263.73-10.21 263.8-10.06L263.8-10.06 263.8-2.25Q263.8-1.73 263.6-1.46 263.41-1.2 262.87-1.17L262.87-1.17 238.7-1.17 237.97-1.81ZM276.27-32.71L278.05-17.21Q278.49-18.99 278.87-21.24 279.25-23.49 279.49-25.24 279.74-27 280.07-29.55 280.4-32.1 280.62-33.59L280.62-33.59 294.68-33.59Q294.75-33.01 294.84-32.34 294.92-31.67 295-31.05 295.07-30.44 295.16-29.76 295.24-29.08 295.31-28.45 295.39-27.83 295.46-27.15 295.53-26.46 295.62-25.85 295.71-25.24 295.79-24.58 295.88-23.93 295.95-23.34L295.95-23.34 297-16.43 298.98-33.23Q299.03-33.37 299.16-33.47 299.29-33.57 299.54-33.63 299.78-33.69 300-33.73 300.22-33.76 300.6-33.78 300.98-33.79 301.2-33.79 301.42-33.79 301.83-33.79 302.25-33.79 302.39-33.79L302.39-33.79Q303.18-33.79 304.64-33.74 306.11-33.69 306.89-33.69L306.89-33.69Q306.98-33.69 307.4-33.72 307.81-33.74 308.06-33.74L308.06-33.74Q308.99-33.74 309.13-33.59L309.13-33.59Q309.25-33.59 309.56-33.62 309.87-33.64 310.01-33.64L310.01-33.64Q310.23-33.64 310.39-33.62 310.55-33.59 310.72-33.51 310.89-33.42 311.02-33.3 311.16-33.18 311.27-32.96 311.38-32.74 311.43-32.42L311.43-32.42 304.32-1.27 290.04-1.27 287.33-16.94 285.65-4Q285.62-3.86 285.51-3.2 285.4-2.54 285.34-2.29 285.28-2.05 285.13-1.64 284.99-1.22 284.77-1.05 284.55-0.88 284.23-0.88L284.23-0.88Q283.33-0.88 281.54-0.95 279.76-1.03 278.86-1.03L278.86-1.03Q277.3-1.03 274.76-0.95 272.22-0.88 271.05-0.88L271.05-0.88 270.27-0.88 263.77-31.23 263.92-32.96Q263.92-33.01 263.92-33.15 263.92-33.3 263.92-33.34 263.92-33.37 263.94-33.48 263.97-33.59 264.02-33.64 264.06-33.69 264.16-33.76 264.26-33.84 264.41-33.89L264.41-33.89Q265.09-33.79 265.43-33.79L265.43-33.79 267.04-33.79Q267.53-33.79 267.53-33.89L267.53-33.89 268.36-33.89Q268.46-33.89 268.72-33.91 268.97-33.94 269.19-33.94L269.19-33.94 269.87-33.94Q270.14-33.94 270.66-33.96 271.17-33.98 271.44-33.98L271.44-33.98 273.05-33.98 273.05-33.89 274.66-33.89Q275.44-33.89 275.84-33.65 276.25-33.42 276.27-32.71L276.27-32.71ZM326.44-16.21L326.44-17.68 326.39-18.21Q326.85-22.19 327.27-23.75L327.27-23.75Q328.22-27.42 330.69-29.88L330.69-29.88 331.27-30.47Q332.44-31.84 334.84-32.81L334.84-32.81 335.76-32.81Q338.16-33.81 343.62-34.67L343.62-34.67Q344.99-34.67 346.49-34.46 347.99-34.25 349.83-33.78 351.66-33.3 353.35-32.26 355.05-31.23 356.17-29.79L356.17-29.79 356.17-29.1Q360.18-24.1 360.18-17.87L360.18-17.87Q360.18-10.86 356.95-6.45L356.95-6.45 355.98-5.22Q354.86-3.83 353.18-2.83 351.51-1.83 349.63-1.31 347.75-0.78 346.03-0.56 344.31-0.34 342.6-0.34L342.6-0.34Q340.08-0.34 337.8-0.94 335.52-1.54 333.53-2.81 331.54-4.08 330.03-5.93 328.51-7.79 327.57-10.41 326.63-13.04 326.44-16.21L326.44-16.21ZM339.87-18.55L339.87-17.48Q339.87-8.89 343.14-8.89L343.14-8.89Q344.04-8.89 344.71-9.23 345.38-9.57 345.8-10.28 346.21-10.99 346.48-11.72 346.75-12.45 346.86-13.55 346.97-14.65 347.01-15.48 347.04-16.31 347.04-17.48L347.04-17.48 347.04-18.36Q347.04-19.63 346.9-20.8 346.75-21.97 346.4-23.16 346.04-24.34 345.31-25.06 344.58-25.78 343.53-25.78L343.53-25.78Q339.87-25.78 339.87-18.55L339.87-18.55ZM364.23-0.98L363.59-2.05 363.59-33.01Q363.59-33.4 363.84-33.58 364.08-33.76 364.29-33.78 364.5-33.79 365.06-33.79L365.06-33.79 388.1-33.79Q388.3-33.79 388.42-33.73 388.54-33.67 388.62-33.61 388.69-33.54 388.72-33.41 388.74-33.28 388.75-33.2 388.76-33.13 388.75-32.98 388.74-32.84 388.74-32.81L388.74-32.81 388.74-24.51 377.31-24.51 377.31-23.63Q377.31-23.34 377.41-22.07L377.41-22.07 379.71-22.07Q380.05-22.09 380.94-22.23 381.83-22.36 382.34-22.36L382.34-22.36 384.35-22.36Q385.03-22.36 385.37-22.41L385.37-22.41Q386.37-22.41 387.2-22.17 388.03-21.92 388.1-21.63L388.1-21.63 388.1-20.21Q388.1-19.75 388.06-18.79 388.01-17.82 388.01-17.33L388.01-17.33 388.01-15.14Q388.06-14.94 388.06-14.45L388.06-14.45 388.06-13.48Q387.96-12.7 386.54-12.7L386.54-12.7 384.98-12.7Q384.15-12.7 382.6-12.65 381.05-12.6 380.19-12.6L380.19-12.6 377.46-12.6 377.46-0.98 364.23-0.98ZM421.74-0.2L421.74-0.2Q417.67-0.2 414.42-1.57 411.17-2.95 409.1-5.4 407.02-7.84 405.93-11.1 404.85-14.36 404.85-18.21L404.85-18.21 404.85-18.55Q404.87-18.73 404.93-19.4 404.99-20.07 405.01-20.28 405.02-20.48 405.09-21.07 405.17-21.66 405.21-21.92 405.26-22.19 405.35-22.71 405.43-23.22 405.54-23.55 405.65-23.88 405.8-24.34 405.95-24.8 406.12-25.22 406.29-25.63 406.51-26.07L406.51-26.07 406.51-26.03Q407.63-28.37 409.34-30.08 411.05-31.79 413.1-32.73 415.15-33.67 417.3-34.09 419.45-34.52 421.84-34.52L421.84-34.52Q424.87-34.52 427.31-33.92 429.75-33.33 431.36-32.32 432.97-31.32 434.12-29.9 435.27-28.47 435.85-26.95 436.44-25.44 436.68-23.68L436.68-23.68 436.68-21.58Q436.61-21.24 436.32-21.06 436.02-20.87 435.68-20.84 435.34-20.8 434.73-20.8L434.73-20.8 424.28-20.8 424.28-22.9Q424.16-23.73 423.57-24.41 422.99-25.1 422.13-25.1L422.13-25.1Q421.38-25.1 420.8-24.78 420.23-24.46 419.9-23.94 419.57-23.41 419.36-22.72 419.15-22.02 419.09-21.25 419.03-20.48 419-19.69 418.96-18.9 419.01-18.19L419.01-18.19Q419.01-17.7 419.01-17.48L419.01-17.48 419.01-14.75Q419.01-14.14 419.07-13.56 419.13-12.99 419.36-12.08 419.59-11.18 420.18-10.62 420.77-10.06 421.64-10.06L421.64-10.06Q422.57-10.06 423.02-10.84 423.48-11.62 423.78-12.72 424.09-13.82 424.48-14.21L424.48-14.21Q425.45-14.21 427.41-14.18 429.36-14.16 430.34-14.16L430.34-14.16Q431.02-14.16 432.36-14.18 433.71-14.21 434.39-14.21L434.39-14.21 436.2-14.21Q437-14.21 437.07-13.23L437.07-13.23 437.07-12.3Q436.54-7.45 433.49-4.47 430.43-1.49 425.84-0.68L425.84-0.68 425.84-0.54Q424.21-0.2 421.74-0.2ZM471.59-32.57L471.59-32.57 471.59-2.54Q471.59-2.03 471.56-1.72 471.52-1.42 471.35-1.15 471.18-0.88 470.86-0.88L470.86-0.88 458.41-0.88 458.41-1.42Q458.36-1.46 458.03-1.64 457.7-1.81 457.63-1.95L457.63-1.95 457.63-11.82Q457.63-12.35 457.54-12.43 457.46-12.5 456.85-12.5L456.85-12.5 455.19-12.5Q454.6-12.5 453.82-12.4L453.82-12.4 453.82-1.86Q453.72-1.42 453.44-1.29 453.16-1.17 452.6-1.17L452.6-1.17 451.48-1.17Q450.33-1.17 447.88-1.12 445.42-1.07 444.15-1.07L444.15-1.07 440.93-1.07Q439.88-1.07 439.88-2.25L439.88-2.25 440.03-33.01Q440.03-33.13 440.1-33.22 440.17-33.3 440.39-33.46 440.61-33.62 440.64-33.64L440.64-33.64 453.77-33.64 453.77-23.14 458.02-23.14 458.02-33.89 470.47-33.89Q471.06-33.89 471.32-33.62 471.59-33.35 471.59-32.57ZM476.38-0.98L476.38-33.59 480.92-33.59Q483.02-33.59 487.63-33.69 492.25-33.79 494.54-33.79L494.54-33.79Q496.52-33.79 498.24-33.57 499.96-33.35 501.63-32.76 503.3-32.18 504.49-31.27 505.67-30.37 506.41-28.89 507.14-27.42 507.14-25.49L507.14-25.49Q507.14-22.83 505.89-20.95 504.65-19.07 502.06-17.77L502.06-17.77Q503.09-17.33 503.84-16.63 504.6-15.92 505-15.41 505.4-14.89 505.78-13.68 506.16-12.48 506.23-12.1 506.31-11.72 506.55-10.23L506.55-10.23Q506.63-9.89 506.65-9.72L506.65-9.72Q506.75-8.74 507.48-6.14 508.21-3.54 508.21-2.15L508.21-2.15Q508.21-1.27 507.67-1.27L507.67-1.27Q506.21-1.27 503.24-1.25 500.28-1.22 498.84-1.22L498.84-1.22Q498.25-1.27 497.08-1.27L497.08-1.27 495.42-1.27Q494.93-1.42 494.47-2.78 494-4.15 493.81-5.86L493.81-5.86 493.27-10.21Q493.12-10.74 493.04-10.97 492.95-11.21 492.73-11.54 492.51-11.87 492.14-11.99 491.76-12.11 491.17-12.11L491.17-12.11 490.05-12.11 490.05-2.34Q490.05-2.27 490.05-2.11 490.05-1.95 490.05-1.89 490.05-1.83 490.05-1.71 490.05-1.59 490.02-1.53 490-1.46 489.97-1.37 489.95-1.27 489.91-1.23 489.88-1.2 489.82-1.14 489.75-1.07 489.67-1.05 489.58-1.03 489.47-1 489.36-0.98 489.22-0.98L489.22-0.98 476.38-0.98ZM490.19-20.7L490.19-20.7Q490.24-20.65 490.34-20.5 490.44-20.34 490.54-20.24 490.63-20.14 490.73-20.12L490.73-20.12Q491.46-20.12 492.2-20.28 492.93-20.43 493.7-20.8 494.47-21.17 494.94-21.92 495.42-22.68 495.42-23.73L495.42-23.73Q495.42-26.27 490.54-26.27L490.54-26.27Q490.05-26.15 490.05-25.88L490.05-25.88 490.05-24.95Q490.05-24.24 490.12-22.83 490.19-21.41 490.19-20.7ZM508.84-16.21L508.84-17.68 508.8-18.21Q509.26-22.19 509.67-23.75L509.67-23.75Q510.63-27.42 513.09-29.88L513.09-29.88 513.68-30.47Q514.85-31.84 517.24-32.81L517.24-32.81 518.17-32.81Q520.56-33.81 526.03-34.67L526.03-34.67Q527.4-34.67 528.9-34.46 530.4-34.25 532.23-33.78 534.06-33.3 535.76-32.26 537.46-31.23 538.58-29.79L538.58-29.79 538.58-29.1Q542.58-24.1 542.58-17.87L542.58-17.87Q542.58-10.86 539.36-6.45L539.36-6.45 538.39-5.22Q537.26-3.83 535.59-2.83 533.92-1.83 532.04-1.31 530.16-0.78 528.44-0.56 526.72-0.34 525.01-0.34L525.01-0.34Q522.49-0.34 520.21-0.94 517.93-1.54 515.94-2.81 513.95-4.08 512.43-5.93 510.92-7.79 509.98-10.41 509.04-13.04 508.84-16.21L508.84-16.21ZM522.27-18.55L522.27-17.48Q522.27-8.89 525.54-8.89L525.54-8.89Q526.45-8.89 527.12-9.23 527.79-9.57 528.2-10.28 528.62-10.99 528.89-11.72 529.16-12.45 529.27-13.55 529.38-14.65 529.41-15.48 529.45-16.31 529.45-17.48L529.45-17.48 529.45-18.36Q529.45-19.63 529.3-20.8 529.16-21.97 528.8-23.16 528.45-24.34 527.72-25.06 526.98-25.78 525.93-25.78L525.93-25.78Q522.27-25.78 522.27-18.55L522.27-18.55ZM561.38-33.5L563.87-33.5Q564.04-33.54 564.42-33.58 564.8-33.62 564.9-33.64L564.9-33.64 567.8-18.77 571.61-33.69 588.77-33.69Q589.46-33.69 589.46-30.81L589.46-30.81 589.46-2.05Q589.41-1.66 589.24-1.42 589.07-1.17 588.74-1.09 588.41-1 588.22-0.99 588.04-0.98 587.6-0.98L587.6-0.98Q586.06-0.98 582.93-0.93 579.79-0.88 578.23-0.88L578.23-0.88Q577.01-1.64 577.01-6.49L577.01-6.49Q577.01-7.71 577.05-9.68 577.1-11.65 577.1-12.6L577.1-12.6 577.1-14.75Q577.1-14.92 577.08-15.3 577.05-15.67 577.05-15.87L577.05-15.87Q577.05-16.7 577.15-18.55L577.15-18.55 577.15-16.7Q576.81-15.26 575.83-12.3 574.86-9.35 574.52-7.91L574.52-7.91 573.05-1.66Q572.66-0.98 570.61-0.98L570.61-0.98Q569.61-0.98 568.01-1.03 566.41-1.07 565.58-1.07L565.58-1.07Q565.34-1.07 564.75-1.05 564.16-1.03 564.02-1.03L564.02-1.03Q563.24-1.03 562.89-1.22 562.55-1.42 562.41-2L562.41-2Q560.11-12.18 559.23-16.41L559.23-16.41 558.35-20.61Q558.01-13.5 558.01-5.57L558.01-5.57 558.01-1.27 546.49-1.27Q546.49-1.42 546.56-1.9 546.63-2.39 546.63-2.44L546.63-2.44Q546.44-7.13 546.44-14.01L546.44-14.01Q546.44-16.09 546.41-19.54 546.39-23 546.39-24.32L546.39-24.32 546.39-32.96Q546.39-33.28 546.49-33.44 546.59-33.59 546.98-33.89L546.98-33.89 549.22-33.89Q550.44-33.89 550.98-33.94L550.98-33.94Q553.45-33.94 556.97-33.72 560.5-33.5 561.38-33.5L561.38-33.5ZM577.15-18.75L577.15-18.7 577.15-18.75ZM592.48-16.21L592.48-17.68 592.43-18.21Q592.9-22.19 593.31-23.75L593.31-23.75Q594.26-27.42 596.73-29.88L596.73-29.88 597.32-30.47Q598.49-31.84 600.88-32.81L600.88-32.81 601.81-32.81Q604.2-33.81 609.67-34.67L609.67-34.67Q611.04-34.67 612.54-34.46 614.04-34.25 615.87-33.78 617.7-33.3 619.4-32.26 621.1-31.23 622.22-29.79L622.22-29.79 622.22-29.1Q626.22-24.1 626.22-17.87L626.22-17.87Q626.22-10.86 623-6.45L623-6.45 622.02-5.22Q620.9-3.83 619.23-2.83 617.56-1.83 615.68-1.31 613.8-0.78 612.07-0.56 610.35-0.34 608.64-0.34L608.64-0.34Q606.13-0.34 603.85-0.94 601.56-1.54 599.57-2.81 597.58-4.08 596.07-5.93 594.56-7.79 593.62-10.41 592.68-13.04 592.48-16.21L592.48-16.21ZM605.91-18.55L605.91-17.48Q605.91-8.89 609.18-8.89L609.18-8.89Q610.08-8.89 610.76-9.23 611.43-9.57 611.84-10.28 612.26-10.99 612.53-11.72 612.79-12.45 612.9-13.55 613.01-14.65 613.05-15.48 613.09-16.31 613.09-17.48L613.09-17.48 613.09-18.36Q613.09-19.63 612.94-20.8 612.79-21.97 612.44-23.16 612.09-24.34 611.35-25.06 610.62-25.78 609.57-25.78L609.57-25.78Q605.91-25.78 605.91-18.55L605.91-18.55ZM648.58-24.12L648.58-24.12Q647.92-24.12 647.51-24.32 647.09-24.51 646.85-24.8 646.61-25.1 646.3-25.39 645.99-25.68 645.34-25.88 644.68-26.07 643.65-26.07L643.65-26.07Q643.33-26.07 642.88-26.01 642.43-25.95 641.89-25.68 641.36-25.42 641.36-25L641.36-25Q641.36-24.54 641.81-24.21 642.26-23.88 642.83-23.74 643.41-23.61 644.13-23.43 644.85-23.24 645.14-23.1L645.14-23.1 648.73-22.22Q650.32-21.78 651.59-21.29 652.86-20.8 654.28-19.96 655.71-19.12 656.66-18.09 657.62-17.07 658.25-15.52 658.89-13.96 658.89-12.11L658.89-12.11Q658.89-9.86 658.3-8.11L658.3-8.11 658.3-8.15Q657.79-6.59 656.86-5.36 655.93-4.13 654.66-3.31 653.39-2.49 652.1-1.94 650.8-1.39 649.11-1.06 647.41-0.73 646.08-0.57 644.75-0.42 643.02-0.29L643.02-0.29Q635.33-0.68 632.71-2.73L632.71-2.73 632.71-3.03Q630.49-4.69 629.43-6.64 628.37-8.59 628.17-11.04L628.17-11.04Q628.17-11.62 628.71-11.62L628.71-11.62Q628.86-11.62 629.15-11.6 629.44-11.57 629.59-11.57L629.59-11.57 632.08-11.57Q632.42-11.62 633.06-11.62L633.06-11.62 633.69-11.62Q633.89-11.62 634.03-11.57L634.03-11.57Q635.45-11.62 638.87-11.62L638.87-11.62 639.99-11.62Q640.48-11.62 640.75-11.33 641.01-11.04 641.17-10.61 641.33-10.18 641.54-9.75 641.75-9.33 642.28-9.03 642.82-8.74 643.7-8.74L643.7-8.74Q644.65-8.74 645.42-9.24 646.19-9.74 646.19-10.69L646.19-10.69Q646.19-11.13 645.78-11.52 645.36-11.91 644.53-12.23 643.7-12.55 643.05-12.74 642.41-12.94 641.31-13.21 640.21-13.48 639.89-13.57L639.89-13.57 638.43-13.57Q633.13-15.14 630.8-17.54 628.47-19.95 628.47-23.63L628.47-23.63Q628.47-26.07 629.38-28.03 630.3-29.98 631.8-31.23 633.3-32.47 635.33-33.31 637.35-34.16 639.45-34.51 641.55-34.86 643.8-34.86L643.8-34.86Q647.78-34.86 651.18-33.53 654.59-32.2 656.35-30.08L656.35-30.08Q656.98-29.44 657.37-28.47 657.76-27.49 657.87-26.92 657.98-26.34 658.15-25L658.15-25 657.47-24.02 653.32-24.02Q652.64-24.02 651.05-24.07 649.46-24.12 648.58-24.12ZM660.05-16.21L660.05-17.68 660.01-18.21Q660.47-22.19 660.88-23.75L660.88-23.75Q661.84-27.42 664.3-29.88L664.3-29.88 664.89-30.47Q666.06-31.84 668.45-32.81L668.45-32.81 669.38-32.81Q671.77-33.81 677.24-34.67L677.24-34.67Q678.61-34.67 680.11-34.46 681.61-34.25 683.44-33.78 685.27-33.3 686.97-32.26 688.67-31.23 689.79-29.79L689.79-29.79 689.79-29.1Q693.8-24.1 693.8-17.87L693.8-17.87Q693.8-10.86 690.57-6.45L690.57-6.45 689.6-5.22Q688.47-3.83 686.8-2.83 685.13-1.83 683.25-1.31 681.37-0.78 679.65-0.56 677.93-0.34 676.22-0.34L676.22-0.34Q673.7-0.34 671.42-0.94 669.14-1.54 667.15-2.81 665.16-4.08 663.64-5.93 662.13-7.79 661.19-10.41 660.25-13.04 660.05-16.21L660.05-16.21ZM673.48-18.55L673.48-17.48Q673.48-8.89 676.75-8.89L676.75-8.89Q677.66-8.89 678.33-9.23 679-9.57 679.42-10.28 679.83-10.99 680.1-11.72 680.37-12.45 680.48-13.55 680.59-14.65 680.62-15.48 680.66-16.31 680.66-17.48L680.66-17.48 680.66-18.36Q680.66-19.63 680.51-20.8 680.37-21.97 680.01-23.16 679.66-24.34 678.93-25.06 678.19-25.78 677.14-25.78L677.14-25.78Q673.48-25.78 673.48-18.55L673.48-18.55ZM712.59-33.5L715.08-33.5Q715.25-33.54 715.63-33.58 716.01-33.62 716.11-33.64L716.11-33.64 719.01-18.77 722.82-33.69 739.98-33.69Q740.67-33.69 740.67-30.81L740.67-30.81 740.67-2.05Q740.62-1.66 740.45-1.42 740.28-1.17 739.95-1.09 739.62-1 739.43-0.99 739.25-0.98 738.81-0.98L738.81-0.98Q737.27-0.98 734.14-0.93 731-0.88 729.44-0.88L729.44-0.88Q728.22-1.64 728.22-6.49L728.22-6.49Q728.22-7.71 728.27-9.68 728.31-11.65 728.31-12.6L728.31-12.6 728.31-14.75Q728.31-14.92 728.29-15.3 728.27-15.67 728.27-15.87L728.27-15.87Q728.27-16.7 728.36-18.55L728.36-18.55 728.36-16.7Q728.02-15.26 727.04-12.3 726.07-9.35 725.73-7.91L725.73-7.91 724.26-1.66Q723.87-0.98 721.82-0.98L721.82-0.98Q720.82-0.98 719.22-1.03 717.62-1.07 716.79-1.07L716.79-1.07Q716.55-1.07 715.96-1.05 715.37-1.03 715.23-1.03L715.23-1.03Q714.45-1.03 714.11-1.22 713.76-1.42 713.62-2L713.62-2Q711.32-12.18 710.44-16.41L710.44-16.41 709.56-20.61Q709.22-13.5 709.22-5.57L709.22-5.57 709.22-1.27 697.7-1.27Q697.7-1.42 697.77-1.9 697.85-2.39 697.85-2.44L697.85-2.44Q697.65-7.13 697.65-14.01L697.65-14.01Q697.65-16.09 697.63-19.54 697.6-23 697.6-24.32L697.6-24.32 697.6-32.96Q697.6-33.28 697.7-33.44 697.8-33.59 698.19-33.89L698.19-33.89 700.43-33.89Q701.65-33.89 702.19-33.94L702.19-33.94Q704.66-33.94 708.18-33.72 711.71-33.5 712.59-33.5L712.59-33.5ZM728.36-18.75L728.36-18.7 728.36-18.75ZM745.25-1.81L745.25-31.54Q745.25-33.01 745.38-33.25L745.38-33.25Q745.6-33.59 746.09-33.59L746.09-33.59 746.67-33.59Q747.06-33.59 747.21-33.54L747.21-33.54 748.48-33.54Q750.94-33.54 755.94-33.67 760.93-33.79 763.42-33.79L763.42-33.79 769.91-33.79Q770.55-33.72 770.55-33.15L770.55-33.15 770.55-25Q770.52-24.85 770.46-24.74 770.4-24.63 770.36-24.6 770.33-24.56 770.13-24.43 769.94-24.29 769.86-24.22L769.86-24.22 758.54-24.22 758.54-21.19 759.61-21.19Q761.03-21.19 763.93-21.29 766.84-21.39 768.4-21.39L768.4-21.39Q769.08-21.39 769.33-21.12 769.57-20.85 769.57-20.36L769.57-20.36Q769.57-20.24 769.52-19.95 769.47-19.65 769.47-19.53L769.47-19.53 769.47-18.6Q769.47-18.51 769.5-18.2 769.52-17.9 769.52-17.68L769.52-17.68 769.52-16.99Q769.52-16.46 769.57-15.92 769.62-15.38 769.62-14.99L769.62-14.99 769.62-14.36Q769.5-14.06 769.42-13.96 769.35-13.87 769.18-13.87L769.18-13.87 769.18-13.92Q768.28-13.92 766.07-13.79 763.86-13.67 762.54-13.67L762.54-13.67 758.63-13.67 758.63-10.55Q758.83-10.55 759.22-10.52 759.61-10.5 759.81-10.5L759.81-10.5Q760.9-10.5 763.05-10.57 765.2-10.64 766.15-10.64L766.15-10.64 769.28-10.64Q770.55-10.64 770.89-10.35L770.89-10.35Q771.01-10.21 771.09-10.06L771.09-10.06 771.09-2.25Q771.09-1.73 770.89-1.46 770.69-1.2 770.16-1.17L770.16-1.17 745.99-1.17 745.25-1.81ZM804.48-0.2L804.48-0.2Q800.4-0.2 797.15-1.57 793.91-2.95 791.83-5.4 789.76-7.84 788.67-11.1 787.58-14.36 787.58-18.21L787.58-18.21 787.58-18.55Q787.61-18.73 787.67-19.4 787.73-20.07 787.74-20.28 787.75-20.48 787.83-21.07 787.9-21.66 787.95-21.92 788-22.19 788.08-22.71 788.17-23.22 788.28-23.55 788.39-23.88 788.54-24.34 788.68-24.8 788.85-25.22 789.02-25.63 789.24-26.07L789.24-26.07 789.24-26.03Q790.37-28.37 792.08-30.08 793.79-31.79 795.84-32.73 797.89-33.67 800.04-34.09 802.18-34.52 804.58-34.52L804.58-34.52Q807.6-34.52 810.04-33.92 812.49-33.33 814.1-32.32 815.71-31.32 816.86-29.9 818-28.47 818.59-26.95 819.18-25.44 819.42-23.68L819.42-23.68 819.42-21.58Q819.35-21.24 819.05-21.06 818.76-20.87 818.42-20.84 818.08-20.8 817.47-20.8L817.47-20.8 807.02-20.8 807.02-22.9Q806.9-23.73 806.31-24.41 805.72-25.1 804.87-25.1L804.87-25.1Q804.11-25.1 803.54-24.78 802.96-24.46 802.64-23.94 802.31-23.41 802.1-22.72 801.89-22.02 801.83-21.25 801.77-20.48 801.73-19.69 801.7-18.9 801.74-18.19L801.74-18.19Q801.74-17.7 801.74-17.48L801.74-17.48 801.74-14.75Q801.74-14.14 801.81-13.56 801.87-12.99 802.1-12.08 802.33-11.18 802.92-10.62 803.5-10.06 804.38-10.06L804.38-10.06Q805.31-10.06 805.76-10.84 806.21-11.62 806.52-12.72 806.82-13.82 807.21-14.21L807.21-14.21Q808.19-14.21 810.14-14.18 812.1-14.16 813.07-14.16L813.07-14.16Q813.76-14.16 815.1-14.18 816.44-14.21 817.12-14.21L817.12-14.21 818.93-14.21Q819.74-14.21 819.81-13.23L819.81-13.23 819.81-12.3Q819.27-7.45 816.22-4.47 813.17-1.49 808.58-0.68L808.58-0.68 808.58-0.54Q806.94-0.2 804.48-0.2ZM821.13-16.21L821.13-17.68 821.08-18.21Q821.54-22.19 821.96-23.75L821.96-23.75Q822.91-27.42 825.37-29.88L825.37-29.88 825.96-30.47Q827.13-31.84 829.52-32.81L829.52-32.81 830.45-32.81Q832.85-33.81 838.31-34.67L838.31-34.67Q839.68-34.67 841.18-34.46 842.68-34.25 844.52-33.78 846.35-33.3 848.04-32.26 849.74-31.23 850.86-29.79L850.86-29.79 850.86-29.1Q854.87-24.1 854.87-17.87L854.87-17.87Q854.87-10.86 851.64-6.45L851.64-6.45 850.67-5.22Q849.54-3.83 847.87-2.83 846.2-1.83 844.32-1.31 842.44-0.78 840.72-0.56 839-0.34 837.29-0.34L837.29-0.34Q834.77-0.34 832.49-0.94 830.21-1.54 828.22-2.81 826.23-4.08 824.72-5.93 823.2-7.79 822.26-10.41 821.32-13.04 821.13-16.21L821.13-16.21ZM834.55-18.55L834.55-17.48Q834.55-8.89 837.83-8.89L837.83-8.89Q838.73-8.89 839.4-9.23 840.07-9.57 840.49-10.28 840.9-10.99 841.17-11.72 841.44-12.45 841.55-13.55 841.66-14.65 841.7-15.48 841.73-16.31 841.73-17.48L841.73-17.48 841.73-18.36Q841.73-19.63 841.59-20.8 841.44-21.97 841.08-23.16 840.73-24.34 840-25.06 839.27-25.78 838.22-25.78L838.22-25.78Q834.55-25.78 834.55-18.55L834.55-18.55ZM882.35-33.59L890.7-33.59Q891-33.5 891.16-32.75 891.31-32.01 891.34-30.88 891.36-29.76 891.34-28.74 891.31-27.71 891.28-26.64 891.24-25.56 891.24-25.29L891.24-25.29Q891.19-24.32 891.19-22.56L891.19-22.56 891.19-19.97Q891.19-18.26 891.24-15.28 891.29-12.3 891.29-10.89L891.29-10.89 891.29-2Q891.19-1.17 889.92-1.17L889.92-1.17 876.25-1.17Q875.81-1.27 875.13-3.22L875.13-3.22Q874.66-4.52 873.58-7.47 872.49-10.42 871.71-12.66 870.93-14.89 870.29-16.99L870.29-16.99 870.29-17.14 870.29-16.99Q870.22-15.38 870.15-12.19 870.07-9.01 870-7.42L870-7.42 870-2.44Q870-1.71 869.83-1.43 869.66-1.15 868.93-0.98L868.93-0.98 858.87-0.98 857.79-2.05Q857.92-6.1 857.99-14.75 858.06-23.39 858.18-27.54L858.18-27.54 858.18-32.81Q858.43-33.69 858.77-33.69L858.77-33.69 858.77-33.59Q860.43-33.59 863.98-33.69 867.54-33.79 869.32-33.79L869.32-33.79 873.42-33.79Q873.44-33.79 873.49-33.76L873.49-33.76Q873.93-33.59 873.98-33.37L873.98-33.37 874-33.2Q874.88-30.83 875.79-28.3 876.69-25.76 877.94-22.16 879.18-18.55 879.67-17.19L879.67-17.19 879.67-20.8Q880.16-29.39 880.16-33.01L880.16-33.01Q880.16-33.4 880.69-33.5 881.23-33.59 882.35-33.59L882.35-33.59ZM896.71-0.98L896.07-2.05 896.07-33.01Q896.07-33.4 896.32-33.58 896.56-33.76 896.77-33.78 896.98-33.79 897.54-33.79L897.54-33.79 920.58-33.79Q920.78-33.79 920.9-33.73 921.02-33.67 921.1-33.61 921.17-33.54 921.19-33.41 921.22-33.28 921.23-33.2 921.24-33.13 921.23-32.98 921.22-32.84 921.22-32.81L921.22-32.81 921.22-24.51 909.79-24.51 909.79-23.63Q909.79-23.34 909.89-22.07L909.89-22.07 912.19-22.07Q912.53-22.09 913.42-22.23 914.31-22.36 914.82-22.36L914.82-22.36 916.82-22.36Q917.51-22.36 917.85-22.41L917.85-22.41Q918.85-22.41 919.68-22.17 920.51-21.92 920.58-21.63L920.58-21.63 920.58-20.21Q920.58-19.75 920.54-18.79 920.49-17.82 920.49-17.33L920.49-17.33 920.49-15.14Q920.54-14.94 920.54-14.45L920.54-14.45 920.54-13.48Q920.44-12.7 919.02-12.7L919.02-12.7 917.46-12.7Q916.63-12.7 915.08-12.65 913.53-12.6 912.67-12.6L912.67-12.6 909.94-12.6 909.94-0.98 896.71-0.98ZM921.9-16.21L921.9-17.68 921.85-18.21Q922.32-22.19 922.73-23.75L922.73-23.75Q923.68-27.42 926.15-29.88L926.15-29.88 926.73-30.47Q927.91-31.84 930.3-32.81L930.3-32.81 931.23-32.81Q933.62-33.81 939.09-34.67L939.09-34.67Q940.45-34.67 941.96-34.46 943.46-34.25 945.29-33.78 947.12-33.3 948.82-32.26 950.51-31.23 951.64-29.79L951.64-29.79 951.64-29.1Q955.64-24.1 955.64-17.87L955.64-17.87Q955.64-10.86 952.42-6.45L952.42-6.45 951.44-5.22Q950.32-3.83 948.65-2.83 946.97-1.83 945.09-1.31 943.21-0.78 941.49-0.56 939.77-0.34 938.06-0.34L938.06-0.34Q935.55-0.34 933.26-0.94 930.98-1.54 928.99-2.81 927-4.08 925.49-5.93 923.98-7.79 923.04-10.41 922.1-13.04 921.9-16.21L921.9-16.21ZM935.33-18.55L935.33-17.48Q935.33-8.89 938.6-8.89L938.6-8.89Q939.5-8.89 940.17-9.23 940.85-9.57 941.26-10.28 941.68-10.99 941.94-11.72 942.21-12.45 942.32-13.55 942.43-14.65 942.47-15.48 942.51-16.31 942.51-17.48L942.51-17.48 942.51-18.36Q942.51-19.63 942.36-20.8 942.21-21.97 941.86-23.16 941.5-24.34 940.77-25.06 940.04-25.78 938.99-25.78L938.99-25.78Q935.33-25.78 935.33-18.55L935.33-18.55ZM959.15-0.98L959.15-33.59 963.69-33.59Q965.79-33.59 970.41-33.69 975.02-33.79 977.32-33.79L977.32-33.79Q979.3-33.79 981.02-33.57 982.74-33.35 984.41-32.76 986.08-32.18 987.27-31.27 988.45-30.37 989.18-28.89 989.92-27.42 989.92-25.49L989.92-25.49Q989.92-22.83 988.67-20.95 987.42-19.07 984.84-17.77L984.84-17.77Q985.86-17.33 986.62-16.63 987.38-15.92 987.78-15.41 988.18-14.89 988.56-13.68 988.94-12.48 989.01-12.1 989.09-11.72 989.33-10.23L989.33-10.23Q989.4-9.89 989.43-9.72L989.43-9.72Q989.52-8.74 990.26-6.14 990.99-3.54 990.99-2.15L990.99-2.15Q990.99-1.27 990.45-1.27L990.45-1.27Q988.99-1.27 986.02-1.25 983.05-1.22 981.61-1.22L981.61-1.22Q981.03-1.27 979.86-1.27L979.86-1.27 978.2-1.27Q977.71-1.42 977.24-2.78 976.78-4.15 976.59-5.86L976.59-5.86 976.05-10.21Q975.9-10.74 975.82-10.97 975.73-11.21 975.51-11.54 975.29-11.87 974.91-11.99 974.53-12.11 973.95-12.11L973.95-12.11 972.83-12.11 972.83-2.34Q972.83-2.27 972.83-2.11 972.83-1.95 972.83-1.89 972.83-1.83 972.83-1.71 972.83-1.59 972.8-1.53 972.78-1.46 972.75-1.37 972.73-1.27 972.69-1.23 972.65-1.2 972.59-1.14 972.53-1.07 972.45-1.05 972.36-1.03 972.25-1 972.14-0.98 972-0.98L972-0.98 959.15-0.98ZM972.97-20.7L972.97-20.7Q973.02-20.65 973.12-20.5 973.22-20.34 973.31-20.24 973.41-20.14 973.51-20.12L973.51-20.12Q974.24-20.12 974.97-20.28 975.71-20.43 976.48-20.8 977.24-21.17 977.72-21.92 978.2-22.68 978.2-23.73L978.2-23.73Q978.2-26.27 973.31-26.27L973.31-26.27Q972.83-26.15 972.83-25.88L972.83-25.88 972.83-24.95Q972.83-24.24 972.9-22.83 972.97-21.41 972.97-20.7ZM1008.66-33.5L1011.15-33.5Q1011.32-33.54 1011.7-33.58 1012.08-33.62 1012.18-33.64L1012.18-33.64 1015.08-18.77 1018.89-33.69 1036.06-33.69Q1036.74-33.69 1036.74-30.81L1036.74-30.81 1036.74-2.05Q1036.69-1.66 1036.52-1.42 1036.35-1.17 1036.02-1.09 1035.69-1 1035.51-0.99 1035.32-0.98 1034.88-0.98L1034.88-0.98Q1033.35-0.98 1030.21-0.93 1027.07-0.88 1025.51-0.88L1025.51-0.88Q1024.29-1.64 1024.29-6.49L1024.29-6.49Q1024.29-7.71 1024.34-9.68 1024.39-11.65 1024.39-12.6L1024.39-12.6 1024.39-14.75Q1024.39-14.92 1024.36-15.3 1024.34-15.67 1024.34-15.87L1024.34-15.87Q1024.34-16.7 1024.43-18.55L1024.43-18.55 1024.43-16.7Q1024.09-15.26 1023.12-12.3 1022.14-9.35 1021.8-7.91L1021.8-7.91 1020.33-1.66Q1019.94-0.98 1017.89-0.98L1017.89-0.98Q1016.89-0.98 1015.29-1.03 1013.69-1.07 1012.86-1.07L1012.86-1.07Q1012.62-1.07 1012.03-1.05 1011.45-1.03 1011.3-1.03L1011.3-1.03Q1010.52-1.03 1010.18-1.22 1009.83-1.42 1009.69-2L1009.69-2Q1007.39-12.18 1006.51-16.41L1006.51-16.41 1005.64-20.61Q1005.29-13.5 1005.29-5.57L1005.29-5.57 1005.29-1.27 993.77-1.27Q993.77-1.42 993.84-1.9 993.92-2.39 993.92-2.44L993.92-2.44Q993.72-7.13 993.72-14.01L993.72-14.01Q993.72-16.09 993.7-19.54 993.67-23 993.67-24.32L993.67-24.32 993.67-32.96Q993.67-33.28 993.77-33.44 993.87-33.59 994.26-33.89L994.26-33.89 996.5-33.89Q997.73-33.89 998.26-33.94L998.26-33.94Q1000.73-33.94 1004.26-33.72 1007.78-33.5 1008.66-33.5L1008.66-33.5ZM1024.43-18.75L1024.43-18.7 1024.43-18.75ZM1060.27-6.05L1052.75-6.05Q1052.58-5.49 1052.42-4.58 1052.26-3.66 1052.13-3.14 1052-2.61 1051.68-2.04 1051.36-1.46 1050.71-1.2 1050.07-0.93 1049.04-0.93L1049.04-0.93 1038.49-0.93 1038.49-1.76Q1039.79-5.64 1042.27-13.67 1044.74-21.7 1046.11-25.83L1046.11-25.83 1046.11-25.78Q1046.94-28.15 1048.55-33.2L1048.55-33.2Q1048.58-33.25 1048.63-33.33L1048.63-33.33Q1048.85-33.69 1049.04-33.89L1049.04-33.89 1062.22-33.79Q1065.59-33.79 1065.94-33.2L1065.94-33.2 1065.94-32.57Q1065.98-32.35 1066.47-31.45L1066.47-31.45Q1068.84-24.19 1069.94-20.9L1069.94-20.9 1069.94-20.61Q1070.04-19.9 1070.38-18.99 1070.72-18.09 1071.2-17.05 1071.67-16.02 1071.87-15.43L1071.87-15.43 1072.84-11.91Q1073.7-9.08 1075.36-4.35L1075.36-4.35 1075.36-4.39 1075.36-3.91Q1075.43-3.56 1075.73-2.98 1076.02-2.39 1076.09-2.15L1076.09-2.15Q1076.09-1.46 1075.81-1.27 1075.53-1.07 1074.72-1.07L1074.72-1.07 1063.4-1.07Q1062.98-1.12 1062.86-1.15 1062.74-1.17 1062.48-1.25 1062.22-1.32 1062.11-1.44 1062-1.56 1061.98-1.76L1061.98-1.76 1061.05-5.47Q1060.96-5.93 1060.86-5.99 1060.76-6.05 1060.27-6.05L1060.27-6.05ZM1053.92-14.65L1053.92-14.75 1053.92-14.65ZM1059.29-17.68L1059.29-17.68Q1059.15-18.36 1058.87-19.89 1058.59-21.41 1058.32-22.55 1058.05-23.68 1057.73-24.66L1057.73-24.66 1057.73-25.83Q1057.54-26.34 1057.05-26.56L1057.05-26.56 1057.05-26.51Q1056.46-26.39 1055.88-23.24L1055.88-23.24 1055.88-22.07Q1055.83-21.9 1055.66-21.75 1055.49-21.61 1055.49-21.58L1055.49-21.58Q1054.68-18.02 1054.17-15.82L1054.17-15.82Q1054.17-15.58 1054.05-14.97 1053.92-14.36 1053.92-14.26L1053.92-14.26 1059.98-14.26Q1059.98-14.89 1059.54-16.55L1059.54-16.55 1059.54-17.09Q1059.51-17.16 1059.4-17.37 1059.29-17.58 1059.29-17.68ZM1075.16-24.71L1075.16-24.71 1075.16-33.5 1103.58-33.5Q1103.97-33.42 1104.07-33.19 1104.17-32.96 1104.17-32.52L1104.17-32.52 1104.17-24.71Q1104.12-24.12 1103.48-24.12L1103.48-24.12 1096.55-24.12 1096.55-1.66Q1096.55-1.64 1096.52-1.54 1096.5-1.44 1096.5-1.42 1096.5-1.39 1096.48-1.32 1096.45-1.25 1096.43-1.22 1096.4-1.2 1096.38-1.14 1096.35-1.07 1096.32-1.06 1096.28-1.05 1096.22-1.01 1096.16-0.98 1096.1-0.95 1096.04-0.93 1095.95-0.92 1095.86-0.9 1095.77-0.88L1095.77-0.88 1094.2-0.88Q1091.08-0.88 1091.08-1.07L1091.08-1.07Q1090.88-1.07 1090.49-1.05 1090.1-1.03 1089.91-1.03L1089.91-1.03 1087.95-1.03Q1087.39-1.03 1086.36-1 1085.32-0.98 1084.73-0.98L1084.73-0.98 1083.36-0.98 1082.39-1.66 1082.39-6.93Q1082.41-8.35 1082.6-12.99 1082.78-17.63 1082.78-20.31L1082.78-20.31 1082.78-20.95Q1082.78-21.14 1082.8-21.56 1082.83-21.97 1082.83-22.17L1082.83-22.17Q1082.83-22.39 1082.8-23.06 1082.78-23.73 1082.78-23.93L1082.78-23.93 1076.68-23.93Q1076.14-23.93 1075.65-24.11 1075.16-24.29 1075.16-24.71ZM1119.1-0.93L1105.73-0.93 1105.73-33.01Q1105.75-33.2 1106.12-33.36 1106.48-33.52 1106.56-33.59L1106.56-33.59 1119.69-33.59 1119.69-1.81Q1119.57-1.29 1119.46-1.11 1119.35-0.93 1119.1-0.93L1119.1-0.93ZM1122.62-16.21L1122.62-17.68 1122.57-18.21Q1123.03-22.19 1123.45-23.75L1123.45-23.75Q1124.4-27.42 1126.87-29.88L1126.87-29.88 1127.45-30.47Q1128.62-31.84 1131.02-32.81L1131.02-32.81 1131.94-32.81Q1134.34-33.81 1139.81-34.67L1139.81-34.67Q1141.17-34.67 1142.67-34.46 1144.18-34.25 1146.01-33.78 1147.84-33.3 1149.53-32.26 1151.23-31.23 1152.35-29.79L1152.35-29.79 1152.35-29.1Q1156.36-24.1 1156.36-17.87L1156.36-17.87Q1156.36-10.86 1153.14-6.45L1153.14-6.45 1152.16-5.22Q1151.04-3.83 1149.36-2.83 1147.69-1.83 1145.81-1.31 1143.93-0.78 1142.21-0.56 1140.49-0.34 1138.78-0.34L1138.78-0.34Q1136.27-0.34 1133.98-0.94 1131.7-1.54 1129.71-2.81 1127.72-4.08 1126.21-5.93 1124.69-7.79 1123.75-10.41 1122.81-13.04 1122.62-16.21L1122.62-16.21ZM1136.05-18.55L1136.05-17.48Q1136.05-8.89 1139.32-8.89L1139.32-8.89Q1140.22-8.89 1140.89-9.23 1141.56-9.57 1141.98-10.28 1142.39-10.99 1142.66-11.72 1142.93-12.45 1143.04-13.55 1143.15-14.65 1143.19-15.48 1143.22-16.31 1143.22-17.48L1143.22-17.48 1143.22-18.36Q1143.22-19.63 1143.08-20.8 1142.93-21.97 1142.58-23.16 1142.22-24.34 1141.49-25.06 1140.76-25.78 1139.71-25.78L1139.71-25.78Q1136.05-25.78 1136.05-18.55L1136.05-18.55ZM1183.85-33.59L1192.2-33.59Q1192.49-33.5 1192.65-32.75 1192.81-32.01 1192.83-30.88 1192.85-29.76 1192.83-28.74 1192.81-27.71 1192.77-26.64 1192.73-25.56 1192.73-25.29L1192.73-25.29Q1192.68-24.32 1192.68-22.56L1192.68-22.56 1192.68-19.97Q1192.68-18.26 1192.73-15.28 1192.78-12.3 1192.78-10.89L1192.78-10.89 1192.78-2Q1192.68-1.17 1191.41-1.17L1191.41-1.17 1177.74-1.17Q1177.3-1.27 1176.62-3.22L1176.62-3.22Q1176.16-4.52 1175.07-7.47 1173.98-10.42 1173.2-12.66 1172.42-14.89 1171.78-16.99L1171.78-16.99 1171.78-17.14 1171.78-16.99Q1171.71-15.38 1171.64-12.19 1171.57-9.01 1171.49-7.42L1171.49-7.42 1171.49-2.44Q1171.49-1.71 1171.32-1.43 1171.15-1.15 1170.42-0.98L1170.42-0.98 1160.36-0.98 1159.28-2.05Q1159.41-6.1 1159.48-14.75 1159.55-23.39 1159.68-27.54L1159.68-27.54 1159.68-32.81Q1159.92-33.69 1160.26-33.69L1160.26-33.69 1160.26-33.59Q1161.92-33.59 1165.47-33.69 1169.03-33.79 1170.81-33.79L1170.81-33.79 1174.91-33.79Q1174.93-33.79 1174.98-33.76L1174.98-33.76Q1175.42-33.59 1175.47-33.37L1175.47-33.37 1175.5-33.2Q1176.37-30.83 1177.28-28.3 1178.18-25.76 1179.43-22.16 1180.67-18.55 1181.16-17.19L1181.16-17.19 1181.16-20.8Q1181.65-29.39 1181.65-33.01L1181.65-33.01Q1181.65-33.4 1182.19-33.5 1182.72-33.59 1183.85-33.59L1183.85-33.59Z" opacity="1" transform="matrix(1,0,0,1,0,0)" fill="black" class="slogan-text-1" id="SvgjsPath1075" stroke-width="7" stroke="black" stroke-linejoin="round"></path></svg></g></svg></g></svg></g></svg></g></svg></g></svg></g></svg></g></mask><g transform="matrix(1,0,0,1,39.55199999999999,54.850830377639)"><svg viewBox="0 0 316.416 137.498339244722" height="137.498339244722" width="316.416"><g><svg viewBox="0 0 316.416 137.498339244722" height="137.498339244722" width="316.416"><g><svg viewBox="0 0 316.416 137.498339244722" height="137.498339244722" width="316.416"><g><svg viewBox="0 0 316.416 137.498339244722" height="137.498339244722" width="316.416"><g id="textblocktransform"><svg viewBox="0 0 316.416 137.498339244722" height="137.498339244722" width="316.416" id="textblock"><g><svg viewBox="0 0 316.416 105.54782458662834" height="105.54782458662834" width="316.416"><g transform="matrix(1,0,0,1,0,0)"><svg width="316.416" viewBox="-0.2999999523162842 -42.79999923706055 140.08999633789062 47.39999771118164" height="105.54782458662834" data-palette-color="#ffffff"><path d="M8.35-34.05L8.35-26 18.2-26 18.2-22.1 8.35-22.1 8.35-10.1Q8.35-8.15 8.65-6.88 8.95-5.6 9.55-4.88 10.15-4.15 11.05-3.85 11.95-3.55 13.15-3.55L13.15-3.55Q15.25-3.55 16.53-4.03 17.8-4.5 18.3-4.7L18.3-4.7 19.2-0.85Q18.5-0.5 16.75 0.03 15 0.55 12.75 0.55L12.75 0.55Q10.1 0.55 8.38-0.13 6.65-0.8 5.6-2.15 4.55-3.5 4.13-5.48 3.7-7.45 3.7-10.05L3.7-10.05 3.7-33.25 8.35-34.05ZM33.7-26.55L33.7-26.55Q34.3-26.55 35.07-26.48 35.85-26.4 36.6-26.28 37.35-26.15 37.97-26.03 38.6-25.9 38.9-25.8L38.9-25.8 38.1-21.75Q37.55-21.95 36.27-22.23 35-22.5 33-22.5L33-22.5Q31.7-22.5 30.42-22.23 29.15-21.95 28.75-21.85L28.75-21.85 28.75 0 24.1 0 24.1-24.9Q25.75-25.5 28.2-26.03 30.65-26.55 33.7-26.55ZM52.2-3.35L52.2-3.35Q53.85-3.35 55.12-3.43 56.4-3.5 57.25-3.7L57.25-3.7 57.25-11.45Q56.75-11.7 55.62-11.88 54.5-12.05 52.9-12.05L52.9-12.05Q51.85-12.05 50.67-11.9 49.5-11.75 48.52-11.28 47.55-10.8 46.9-9.98 46.25-9.15 46.25-7.8L46.25-7.8Q46.25-5.3 47.85-4.33 49.45-3.35 52.2-3.35ZM51.8-26.65L51.8-26.65Q54.6-26.65 56.52-25.93 58.45-25.2 59.62-23.88 60.8-22.55 61.3-20.73 61.8-18.9 61.8-16.7L61.8-16.7 61.8-0.45Q61.2-0.35 60.12-0.18 59.05 0 57.7 0.15 56.34 0.3 54.77 0.43 53.2 0.55 51.65 0.55L51.65 0.55Q49.45 0.55 47.6 0.1 45.75-0.35 44.4-1.33 43.05-2.3 42.3-3.9 41.55-5.5 41.55-7.75L41.55-7.75Q41.55-9.9 42.42-11.45 43.3-13 44.8-13.95 46.3-14.9 48.3-15.35 50.3-15.8 52.5-15.8L52.5-15.8Q53.2-15.8 53.95-15.73 54.7-15.65 55.37-15.53 56.05-15.4 56.55-15.3 57.05-15.2 57.25-15.15L57.25-15.15 57.25-16.45Q57.25-17.6 57-18.73 56.75-19.85 56.09-20.73 55.45-21.6 54.32-22.13 53.2-22.65 51.4-22.65L51.4-22.65Q49.1-22.65 47.37-22.33 45.65-22 44.8-21.65L44.8-21.65 44.25-25.5Q45.15-25.9 47.25-26.28 49.35-26.65 51.8-26.65ZM80.79 0.6L80.79 0.6Q77.64 0.6 75.27-0.4 72.89-1.4 71.27-3.2 69.64-5 68.84-7.48 68.04-9.95 68.04-12.95L68.04-12.95Q68.04-15.95 68.92-18.45 69.79-20.95 71.39-22.78 72.99-24.6 75.32-25.63 77.64-26.65 80.49-26.65L80.49-26.65Q82.24-26.65 83.99-26.35 85.74-26.05 87.34-25.4L87.34-25.4 86.29-21.45Q85.24-21.95 83.87-22.25 82.49-22.55 80.94-22.55L80.94-22.55Q77.04-22.55 74.97-20.1 72.89-17.65 72.89-12.95L72.89-12.95Q72.89-10.85 73.37-9.1 73.84-7.35 74.87-6.1 75.89-4.85 77.49-4.17 79.09-3.5 81.39-3.5L81.39-3.5Q83.24-3.5 84.74-3.85 86.24-4.2 87.09-4.6L87.09-4.6 87.74-0.7Q87.34-0.45 86.59-0.23 85.84 0 84.89 0.18 83.94 0.35 82.87 0.48 81.79 0.6 80.79 0.6ZM102.14-14.3L102.14-14.3Q103.64-13.15 105.32-11.45 106.99-9.75 108.62-7.78 110.24-5.8 111.69-3.78 113.14-1.75 114.14 0L114.14 0 108.69 0Q107.64-1.75 106.27-3.58 104.89-5.4 103.39-7.08 101.89-8.75 100.34-10.15 98.79-11.55 97.39-12.5L97.39-12.5 97.39 0 92.74 0 92.74-38 97.39-38.8 97.39-15.1Q98.59-16.3 100.04-17.75 101.49-19.2 102.89-20.7 104.29-22.2 105.54-23.58 106.79-24.95 107.69-26L107.69-26 113.14-26Q111.99-24.75 110.64-23.25 109.29-21.75 107.84-20.23 106.39-18.7 104.92-17.18 103.44-15.65 102.14-14.3ZM128.84 0.6L128.84 0.6Q125.69 0.6 123.31-0.4 120.94-1.4 119.31-3.2 117.69-5 116.89-7.48 116.09-9.95 116.09-12.95L116.09-12.95Q116.09-15.95 116.96-18.45 117.84-20.95 119.44-22.78 121.04-24.6 123.36-25.63 125.69-26.65 128.54-26.65L128.54-26.65Q130.29-26.65 132.04-26.35 133.79-26.05 135.39-25.4L135.39-25.4 134.34-21.45Q133.29-21.95 131.91-22.25 130.54-22.55 128.99-22.55L128.99-22.55Q125.09-22.55 123.01-20.1 120.94-17.65 120.94-12.95L120.94-12.95Q120.94-10.85 121.41-9.1 121.89-7.35 122.91-6.1 123.94-4.85 125.54-4.17 127.14-3.5 129.44-3.5L129.44-3.5Q131.29-3.5 132.79-3.85 134.29-4.2 135.14-4.6L135.14-4.6 135.79-0.7Q135.39-0.45 134.64-0.23 133.89 0 132.94 0.18 131.99 0.35 130.91 0.48 129.84 0.6 128.84 0.6Z" opacity="1" transform="matrix(1,0,0,1,0,0)" fill="#ffffff" class="wordmark-text-0" data-fill-palette-color="primary" id="text-0"></path></svg></g></svg></g><g transform="matrix(1,0,0,1,3.5,126.70605615003883)"><svg viewBox="0 0 309.416 10.792283094683167" height="10.792283094683167" width="309.416"><g transform="matrix(1,0,0,1,0,0)"><svg width="309.416" viewBox="-4.290000021457672 -38.86000061035156 1201.1300048828125 42.65999984741211" height="10.792283094683167" data-palette-color="#ffffff"><path d="M-0.29-24.71L-0.29-24.71-0.29-33.5 28.13-33.5Q28.52-33.42 28.61-33.19 28.71-32.96 28.71-32.52L28.71-32.52 28.71-24.71Q28.66-24.12 28.03-24.12L28.03-24.12 21.09-24.12 21.09-1.66Q21.09-1.64 21.07-1.54 21.04-1.44 21.04-1.42 21.04-1.39 21.02-1.32 21-1.25 20.97-1.22 20.95-1.2 20.92-1.14 20.9-1.07 20.86-1.06 20.83-1.05 20.76-1.01 20.7-0.98 20.64-0.95 20.58-0.93 20.5-0.92 20.41-0.9 20.31-0.88L20.31-0.88 18.75-0.88Q15.63-0.88 15.63-1.07L15.63-1.07Q15.43-1.07 15.04-1.05 14.65-1.03 14.45-1.03L14.45-1.03 12.5-1.03Q11.94-1.03 10.9-1 9.86-0.98 9.28-0.98L9.28-0.98 7.91-0.98 6.93-1.66 6.93-6.93Q6.96-8.35 7.14-12.99 7.32-17.63 7.32-20.31L7.32-20.31 7.32-20.95Q7.32-21.14 7.35-21.56 7.37-21.97 7.37-22.17L7.37-22.17Q7.37-22.39 7.35-23.06 7.32-23.73 7.32-23.93L7.32-23.93 1.22-23.93Q0.68-23.93 0.2-24.11-0.29-24.29-0.29-24.71ZM30.76-0.98L30.76-33.59 35.3-33.59Q37.4-33.59 42.01-33.69 46.63-33.79 48.92-33.79L48.92-33.79Q50.9-33.79 52.62-33.57 54.34-33.35 56.02-32.76 57.69-32.18 58.87-31.27 60.06-30.37 60.79-28.89 61.52-27.42 61.52-25.49L61.52-25.49Q61.52-22.83 60.28-20.95 59.03-19.07 56.44-17.77L56.44-17.77Q57.47-17.33 58.23-16.63 58.98-15.92 59.38-15.41 59.79-14.89 60.17-13.68 60.54-12.48 60.62-12.1 60.69-11.72 60.94-10.23L60.94-10.23Q61.01-9.89 61.03-9.72L61.03-9.72Q61.13-8.74 61.86-6.14 62.6-3.54 62.6-2.15L62.6-2.15Q62.6-1.27 62.06-1.27L62.06-1.27Q60.59-1.27 57.63-1.25 54.66-1.22 53.22-1.22L53.22-1.22Q52.63-1.27 51.46-1.27L51.46-1.27 49.8-1.27Q49.31-1.42 48.85-2.78 48.39-4.15 48.19-5.86L48.19-5.86 47.65-10.21Q47.51-10.74 47.42-10.97 47.34-11.21 47.12-11.54 46.9-11.87 46.52-11.99 46.14-12.11 45.55-12.11L45.55-12.11 44.43-12.11 44.43-2.34Q44.43-2.27 44.43-2.11 44.43-1.95 44.43-1.89 44.43-1.83 44.43-1.71 44.43-1.59 44.41-1.53 44.38-1.46 44.36-1.37 44.33-1.27 44.3-1.23 44.26-1.2 44.2-1.14 44.14-1.07 44.05-1.05 43.97-1.03 43.86-1 43.75-0.98 43.6-0.98L43.6-0.98 30.76-0.98ZM44.58-20.7L44.58-20.7Q44.63-20.65 44.72-20.5 44.82-20.34 44.92-20.24 45.02-20.14 45.11-20.12L45.11-20.12Q45.85-20.12 46.58-20.28 47.31-20.43 48.08-20.8 48.85-21.17 49.33-21.92 49.8-22.68 49.8-23.73L49.8-23.73Q49.8-26.27 44.92-26.27L44.92-26.27Q44.43-26.15 44.43-25.88L44.43-25.88 44.43-24.95Q44.43-24.24 44.5-22.83 44.58-21.41 44.58-20.7ZM83.74-6.05L76.22-6.05Q76.04-5.49 75.89-4.58 75.73-3.66 75.59-3.14 75.46-2.61 75.14-2.04 74.82-1.46 74.18-1.2 73.53-0.93 72.5-0.93L72.5-0.93 61.96-0.93 61.96-1.76Q63.25-5.64 65.73-13.67 68.21-21.7 69.58-25.83L69.58-25.83 69.58-25.78Q70.41-28.15 72.02-33.2L72.02-33.2Q72.04-33.25 72.09-33.33L72.09-33.33Q72.31-33.69 72.5-33.89L72.5-33.89 85.69-33.79Q89.06-33.79 89.4-33.2L89.4-33.2 89.4-32.57Q89.45-32.35 89.94-31.45L89.94-31.45Q92.3-24.19 93.4-20.9L93.4-20.9 93.4-20.61Q93.5-19.9 93.84-18.99 94.18-18.09 94.66-17.05 95.14-16.02 95.33-15.43L95.33-15.43 96.31-11.91Q97.16-9.08 98.82-4.35L98.82-4.35 98.82-4.39 98.82-3.91Q98.9-3.56 99.19-2.98 99.48-2.39 99.56-2.15L99.56-2.15Q99.56-1.46 99.27-1.27 98.99-1.07 98.19-1.07L98.19-1.07 86.86-1.07Q86.45-1.12 86.32-1.15 86.2-1.17 85.94-1.25 85.69-1.32 85.58-1.44 85.47-1.56 85.44-1.76L85.44-1.76 84.52-5.47Q84.42-5.93 84.32-5.99 84.22-6.05 83.74-6.05L83.74-6.05ZM77.39-14.65L77.39-14.75 77.39-14.65ZM82.76-17.68L82.76-17.68Q82.61-18.36 82.33-19.89 82.05-21.41 81.78-22.55 81.51-23.68 81.2-24.66L81.2-24.66 81.2-25.83Q81-26.34 80.51-26.56L80.51-26.56 80.51-26.51Q79.93-26.39 79.34-23.24L79.34-23.24 79.34-22.07Q79.29-21.9 79.12-21.75 78.95-21.61 78.95-21.58L78.95-21.58Q78.14-18.02 77.63-15.82L77.63-15.82Q77.63-15.58 77.51-14.97 77.39-14.36 77.39-14.26L77.39-14.26 83.44-14.26Q83.44-14.89 83-16.55L83-16.55 83-17.09Q82.98-17.16 82.87-17.37 82.76-17.58 82.76-17.68ZM116.69-0.2L116.69-0.2Q112.61-0.2 109.37-1.57 106.12-2.95 104.05-5.4 101.97-7.84 100.88-11.1 99.8-14.36 99.8-18.21L99.8-18.21 99.8-18.55Q99.82-18.73 99.88-19.4 99.94-20.07 99.96-20.28 99.97-20.48 100.04-21.07 100.11-21.66 100.16-21.92 100.21-22.19 100.3-22.71 100.38-23.22 100.49-23.55 100.6-23.88 100.75-24.34 100.9-24.8 101.07-25.22 101.24-25.63 101.46-26.07L101.46-26.07 101.46-26.03Q102.58-28.37 104.29-30.08 106-31.79 108.05-32.73 110.1-33.67 112.25-34.09 114.4-34.52 116.79-34.52L116.79-34.52Q119.82-34.52 122.26-33.92 124.7-33.33 126.31-32.32 127.92-31.32 129.07-29.9 130.22-28.47 130.8-26.95 131.39-25.44 131.63-23.68L131.63-23.68 131.63-21.58Q131.56-21.24 131.27-21.06 130.97-20.87 130.63-20.84 130.29-20.8 129.68-20.8L129.68-20.8 119.23-20.8 119.23-22.9Q119.11-23.73 118.52-24.41 117.94-25.1 117.08-25.1L117.08-25.1Q116.33-25.1 115.75-24.78 115.18-24.46 114.85-23.94 114.52-23.41 114.31-22.72 114.1-22.02 114.04-21.25 113.98-20.48 113.95-19.69 113.91-18.9 113.96-18.19L113.96-18.19Q113.96-17.7 113.96-17.48L113.96-17.48 113.96-14.75Q113.96-14.14 114.02-13.56 114.08-12.99 114.31-12.08 114.54-11.18 115.13-10.62 115.72-10.06 116.59-10.06L116.59-10.06Q117.52-10.06 117.97-10.84 118.43-11.62 118.73-12.72 119.04-13.82 119.43-14.21L119.43-14.21Q120.4-14.21 122.36-14.18 124.31-14.16 125.29-14.16L125.29-14.16Q125.97-14.16 127.31-14.18 128.65-14.21 129.34-14.21L129.34-14.21 131.14-14.21Q131.95-14.21 132.02-13.23L132.02-13.23 132.02-12.3Q131.49-7.45 128.43-4.47 125.38-1.49 120.79-0.68L120.79-0.68 120.79-0.54Q119.16-0.2 116.69-0.2ZM145.89-0.88L135.59-0.88Q135.15-1.61 135-1.9L135-1.9 135-33.98 145.79-33.98Q145.86-33.98 146.18-34 146.5-34.01 146.67-34 146.84-33.98 147.15-33.96 147.45-33.94 147.65-33.87 147.84-33.81 148.05-33.7 148.26-33.59 148.39-33.4 148.53-33.2 148.57-32.96L148.57-32.96 148.57-22.12Q149.38-23.73 150.83-26.76 152.28-29.79 152.97-31.15L152.97-31.15 154.16-33.72 156.48-33.79Q156.97-33.79 157.96-33.74 158.95-33.69 159.41-33.69L159.41-33.69 161.27-33.69Q161.46-33.69 161.84-33.72 162.22-33.74 162.39-33.74L162.39-33.74 163.81-33.74Q163.91-33.74 164.15-33.79L164.15-33.79Q168.11-33.79 168.11-33.2L168.11-33.2Q168.11-32.86 167.67-32.28L167.67-32.28Q166.54-30.49 163.88-25.77 161.22-21.04 159.58-18.65L159.58-18.65 169.13-2.2Q169.13-2.17 169.13-2.03 169.13-1.88 169.13-1.83 169.13-1.78 169.12-1.67 169.11-1.56 169.08-1.5 169.06-1.44 169.02-1.35 168.98-1.27 168.92-1.21 168.86-1.15 168.79-1.07L168.79-1.07Q166.49-1.22 161.95-1.22L161.95-1.22Q161.34-1.22 160.07-1.2 158.8-1.17 158.19-1.17L158.19-1.17 154.87-1.17 154.87-1.86Q154.48-2.51 153.19-4.44 151.89-6.37 151.31-7.47L151.31-7.47 148.57-12.7 148.57-1.86Q148.23-0.88 145.89-0.88L145.89-0.88ZM202.84-18.8L202.45-21.48Q202.62-22.41 203.39-25.04 204.16-27.66 204.31-29.2L204.31-29.2 204.31-30.91Q204.31-30.96 204.37-31.32 204.43-31.69 204.44-31.76 204.45-31.84 204.51-32.14 204.57-32.45 204.64-32.54 204.7-32.64 204.81-32.86 204.92-33.08 205.04-33.17 205.16-33.25 205.34-33.37 205.53-33.5 205.76-33.54 205.99-33.59 206.26-33.59L206.26-33.59 217.39-33.59Q217.44-33.57 217.69-33.4 217.93-33.23 218.09-33.11 218.25-32.98 218.27-32.91L218.27-32.91 210.09-3.49Q209.82-2.47 209.42-1.77 209.02-1.07 208.51-1.07L208.51-1.07 191.81-1.07Q191.42-2.64 190.9-4.76 190.39-6.88 189.88-9 189.36-11.11 188.97-12.7L188.97-12.7 183.04-32.86Q183.04-33.42 183.85-33.59L183.85-33.59 183.85-33.69Q185.31-33.69 188.28-33.74 191.24-33.79 192.59-33.79L192.59-33.79 196.59-33.79Q196.76-33.79 196.82-33.73 196.88-33.67 196.97-33.48 197.06-33.3 197.2-33.15L197.2-33.15 200.69-12.89 202.84-18.8ZM232.89-0.93L219.51-0.93 219.51-33.01Q219.54-33.2 219.9-33.36 220.27-33.52 220.34-33.59L220.34-33.59 233.48-33.59 233.48-1.81Q233.36-1.29 233.25-1.11 233.14-0.93 232.89-0.93L232.89-0.93ZM237.97-1.81L237.97-31.54Q237.97-33.01 238.09-33.25L238.09-33.25Q238.31-33.59 238.8-33.59L238.8-33.59 239.38-33.59Q239.77-33.59 239.92-33.54L239.92-33.54 241.19-33.54Q243.66-33.54 248.65-33.67 253.64-33.79 256.13-33.79L256.13-33.79 262.63-33.79Q263.26-33.72 263.26-33.15L263.26-33.15 263.26-25Q263.24-24.85 263.18-24.74 263.11-24.63 263.08-24.6 263.04-24.56 262.85-24.43 262.65-24.29 262.58-24.22L262.58-24.22 251.25-24.22 251.25-21.19 252.32-21.19Q253.74-21.19 256.65-21.29 259.55-21.39 261.11-21.39L261.11-21.39Q261.8-21.39 262.04-21.12 262.28-20.85 262.28-20.36L262.28-20.36Q262.28-20.24 262.24-19.95 262.19-19.65 262.19-19.53L262.19-19.53 262.19-18.6Q262.19-18.51 262.21-18.2 262.24-17.9 262.24-17.68L262.24-17.68 262.24-16.99Q262.24-16.46 262.28-15.92 262.33-15.38 262.33-14.99L262.33-14.99 262.33-14.36Q262.21-14.06 262.14-13.96 262.06-13.87 261.89-13.87L261.89-13.87 261.89-13.92Q260.99-13.92 258.78-13.79 256.57-13.67 255.25-13.67L255.25-13.67 251.35-13.67 251.35-10.55Q251.54-10.55 251.93-10.52 252.32-10.5 252.52-10.5L252.52-10.5Q253.62-10.5 255.77-10.57 257.91-10.64 258.87-10.64L258.87-10.64 261.99-10.64Q263.26-10.64 263.6-10.35L263.6-10.35Q263.73-10.21 263.8-10.06L263.8-10.06 263.8-2.25Q263.8-1.73 263.6-1.46 263.41-1.2 262.87-1.17L262.87-1.17 238.7-1.17 237.97-1.81ZM276.27-32.71L278.05-17.21Q278.49-18.99 278.87-21.24 279.25-23.49 279.49-25.24 279.74-27 280.07-29.55 280.4-32.1 280.62-33.59L280.62-33.59 294.68-33.59Q294.75-33.01 294.84-32.34 294.92-31.67 295-31.05 295.07-30.44 295.16-29.76 295.24-29.08 295.31-28.45 295.39-27.83 295.46-27.15 295.53-26.46 295.62-25.85 295.71-25.24 295.79-24.58 295.88-23.93 295.95-23.34L295.95-23.34 297-16.43 298.98-33.23Q299.03-33.37 299.16-33.47 299.29-33.57 299.54-33.63 299.78-33.69 300-33.73 300.22-33.76 300.6-33.78 300.98-33.79 301.2-33.79 301.42-33.79 301.83-33.79 302.25-33.79 302.39-33.79L302.39-33.79Q303.18-33.79 304.64-33.74 306.11-33.69 306.89-33.69L306.89-33.69Q306.98-33.69 307.4-33.72 307.81-33.74 308.06-33.74L308.06-33.74Q308.99-33.74 309.13-33.59L309.13-33.59Q309.25-33.59 309.56-33.62 309.87-33.64 310.01-33.64L310.01-33.64Q310.23-33.64 310.39-33.62 310.55-33.59 310.72-33.51 310.89-33.42 311.02-33.3 311.16-33.18 311.27-32.96 311.38-32.74 311.43-32.42L311.43-32.42 304.32-1.27 290.04-1.27 287.33-16.94 285.65-4Q285.62-3.86 285.51-3.2 285.4-2.54 285.34-2.29 285.28-2.05 285.13-1.64 284.99-1.22 284.77-1.05 284.55-0.88 284.23-0.88L284.23-0.88Q283.33-0.88 281.54-0.95 279.76-1.03 278.86-1.03L278.86-1.03Q277.3-1.03 274.76-0.95 272.22-0.88 271.05-0.88L271.05-0.88 270.27-0.88 263.77-31.23 263.92-32.96Q263.92-33.01 263.92-33.15 263.92-33.3 263.92-33.34 263.92-33.37 263.94-33.48 263.97-33.59 264.02-33.64 264.06-33.69 264.16-33.76 264.26-33.84 264.41-33.89L264.41-33.89Q265.09-33.79 265.43-33.79L265.43-33.79 267.04-33.79Q267.53-33.79 267.53-33.89L267.53-33.89 268.36-33.89Q268.46-33.89 268.72-33.91 268.97-33.94 269.19-33.94L269.19-33.94 269.87-33.94Q270.14-33.94 270.66-33.96 271.17-33.98 271.44-33.98L271.44-33.98 273.05-33.98 273.05-33.89 274.66-33.89Q275.44-33.89 275.84-33.65 276.25-33.42 276.27-32.71L276.27-32.71ZM326.44-16.21L326.44-17.68 326.39-18.21Q326.85-22.19 327.27-23.75L327.27-23.75Q328.22-27.42 330.69-29.88L330.69-29.88 331.27-30.47Q332.44-31.84 334.84-32.81L334.84-32.81 335.76-32.81Q338.16-33.81 343.62-34.67L343.62-34.67Q344.99-34.67 346.49-34.46 347.99-34.25 349.83-33.78 351.66-33.3 353.35-32.26 355.05-31.23 356.17-29.79L356.17-29.79 356.17-29.1Q360.18-24.1 360.18-17.87L360.18-17.87Q360.18-10.86 356.95-6.45L356.95-6.45 355.98-5.22Q354.86-3.83 353.18-2.83 351.51-1.83 349.63-1.31 347.75-0.78 346.03-0.56 344.31-0.34 342.6-0.34L342.6-0.34Q340.08-0.34 337.8-0.94 335.52-1.54 333.53-2.81 331.54-4.08 330.03-5.93 328.51-7.79 327.57-10.41 326.63-13.04 326.44-16.21L326.44-16.21ZM339.87-18.55L339.87-17.48Q339.87-8.89 343.14-8.89L343.14-8.89Q344.04-8.89 344.71-9.23 345.38-9.57 345.8-10.28 346.21-10.99 346.48-11.72 346.75-12.45 346.86-13.55 346.97-14.65 347.01-15.48 347.04-16.31 347.04-17.48L347.04-17.48 347.04-18.36Q347.04-19.63 346.9-20.8 346.75-21.97 346.4-23.16 346.04-24.34 345.31-25.06 344.58-25.78 343.53-25.78L343.53-25.78Q339.87-25.78 339.87-18.55L339.87-18.55ZM364.23-0.98L363.59-2.05 363.59-33.01Q363.59-33.4 363.84-33.58 364.08-33.76 364.29-33.78 364.5-33.79 365.06-33.79L365.06-33.79 388.1-33.79Q388.3-33.79 388.42-33.73 388.54-33.67 388.62-33.61 388.69-33.54 388.72-33.41 388.74-33.28 388.75-33.2 388.76-33.13 388.75-32.98 388.74-32.84 388.74-32.81L388.74-32.81 388.74-24.51 377.31-24.51 377.31-23.63Q377.31-23.34 377.41-22.07L377.41-22.07 379.71-22.07Q380.05-22.09 380.94-22.23 381.83-22.36 382.34-22.36L382.34-22.36 384.35-22.36Q385.03-22.36 385.37-22.41L385.37-22.41Q386.37-22.41 387.2-22.17 388.03-21.92 388.1-21.63L388.1-21.63 388.1-20.21Q388.1-19.75 388.06-18.79 388.01-17.82 388.01-17.33L388.01-17.33 388.01-15.14Q388.06-14.94 388.06-14.45L388.06-14.45 388.06-13.48Q387.96-12.7 386.54-12.7L386.54-12.7 384.98-12.7Q384.15-12.7 382.6-12.65 381.05-12.6 380.19-12.6L380.19-12.6 377.46-12.6 377.46-0.98 364.23-0.98ZM421.74-0.2L421.74-0.2Q417.67-0.2 414.42-1.57 411.17-2.95 409.1-5.4 407.02-7.84 405.93-11.1 404.85-14.36 404.85-18.21L404.85-18.21 404.85-18.55Q404.87-18.73 404.93-19.4 404.99-20.07 405.01-20.28 405.02-20.48 405.09-21.07 405.17-21.66 405.21-21.92 405.26-22.19 405.35-22.71 405.43-23.22 405.54-23.55 405.65-23.88 405.8-24.34 405.95-24.8 406.12-25.22 406.29-25.63 406.51-26.07L406.51-26.07 406.51-26.03Q407.63-28.37 409.34-30.08 411.05-31.79 413.1-32.73 415.15-33.67 417.3-34.09 419.45-34.52 421.84-34.52L421.84-34.52Q424.87-34.52 427.31-33.92 429.75-33.33 431.36-32.32 432.97-31.32 434.12-29.9 435.27-28.47 435.85-26.95 436.44-25.44 436.68-23.68L436.68-23.68 436.68-21.58Q436.61-21.24 436.32-21.06 436.02-20.87 435.68-20.84 435.34-20.8 434.73-20.8L434.73-20.8 424.28-20.8 424.28-22.9Q424.16-23.73 423.57-24.41 422.99-25.1 422.13-25.1L422.13-25.1Q421.38-25.1 420.8-24.78 420.23-24.46 419.9-23.94 419.57-23.41 419.36-22.72 419.15-22.02 419.09-21.25 419.03-20.48 419-19.69 418.96-18.9 419.01-18.19L419.01-18.19Q419.01-17.7 419.01-17.48L419.01-17.48 419.01-14.75Q419.01-14.14 419.07-13.56 419.13-12.99 419.36-12.08 419.59-11.18 420.18-10.62 420.77-10.06 421.64-10.06L421.64-10.06Q422.57-10.06 423.02-10.84 423.48-11.62 423.78-12.72 424.09-13.82 424.48-14.21L424.48-14.21Q425.45-14.21 427.41-14.18 429.36-14.16 430.34-14.16L430.34-14.16Q431.02-14.16 432.36-14.18 433.71-14.21 434.39-14.21L434.39-14.21 436.2-14.21Q437-14.21 437.07-13.23L437.07-13.23 437.07-12.3Q436.54-7.45 433.49-4.47 430.43-1.49 425.84-0.68L425.84-0.68 425.84-0.54Q424.21-0.2 421.74-0.2ZM471.59-32.57L471.59-32.57 471.59-2.54Q471.59-2.03 471.56-1.72 471.52-1.42 471.35-1.15 471.18-0.88 470.86-0.88L470.86-0.88 458.41-0.88 458.41-1.42Q458.36-1.46 458.03-1.64 457.7-1.81 457.63-1.95L457.63-1.95 457.63-11.82Q457.63-12.35 457.54-12.43 457.46-12.5 456.85-12.5L456.85-12.5 455.19-12.5Q454.6-12.5 453.82-12.4L453.82-12.4 453.82-1.86Q453.72-1.42 453.44-1.29 453.16-1.17 452.6-1.17L452.6-1.17 451.48-1.17Q450.33-1.17 447.88-1.12 445.42-1.07 444.15-1.07L444.15-1.07 440.93-1.07Q439.88-1.07 439.88-2.25L439.88-2.25 440.03-33.01Q440.03-33.13 440.1-33.22 440.17-33.3 440.39-33.46 440.61-33.62 440.64-33.64L440.64-33.64 453.77-33.64 453.77-23.14 458.02-23.14 458.02-33.89 470.47-33.89Q471.06-33.89 471.32-33.62 471.59-33.35 471.59-32.57ZM476.38-0.98L476.38-33.59 480.92-33.59Q483.02-33.59 487.63-33.69 492.25-33.79 494.54-33.79L494.54-33.79Q496.52-33.79 498.24-33.57 499.96-33.35 501.63-32.76 503.3-32.18 504.49-31.27 505.67-30.37 506.41-28.89 507.14-27.42 507.14-25.49L507.14-25.49Q507.14-22.83 505.89-20.95 504.65-19.07 502.06-17.77L502.06-17.77Q503.09-17.33 503.84-16.63 504.6-15.92 505-15.41 505.4-14.89 505.78-13.68 506.16-12.48 506.23-12.1 506.31-11.72 506.55-10.23L506.55-10.23Q506.63-9.89 506.65-9.72L506.65-9.72Q506.75-8.74 507.48-6.14 508.21-3.54 508.21-2.15L508.21-2.15Q508.21-1.27 507.67-1.27L507.67-1.27Q506.21-1.27 503.24-1.25 500.28-1.22 498.84-1.22L498.84-1.22Q498.25-1.27 497.08-1.27L497.08-1.27 495.42-1.27Q494.93-1.42 494.47-2.78 494-4.15 493.81-5.86L493.81-5.86 493.27-10.21Q493.12-10.74 493.04-10.97 492.95-11.21 492.73-11.54 492.51-11.87 492.14-11.99 491.76-12.11 491.17-12.11L491.17-12.11 490.05-12.11 490.05-2.34Q490.05-2.27 490.05-2.11 490.05-1.95 490.05-1.89 490.05-1.83 490.05-1.71 490.05-1.59 490.02-1.53 490-1.46 489.97-1.37 489.95-1.27 489.91-1.23 489.88-1.2 489.82-1.14 489.75-1.07 489.67-1.05 489.58-1.03 489.47-1 489.36-0.98 489.22-0.98L489.22-0.98 476.38-0.98ZM490.19-20.7L490.19-20.7Q490.24-20.65 490.34-20.5 490.44-20.34 490.54-20.24 490.63-20.14 490.73-20.12L490.73-20.12Q491.46-20.12 492.2-20.28 492.93-20.43 493.7-20.8 494.47-21.17 494.94-21.92 495.42-22.68 495.42-23.73L495.42-23.73Q495.42-26.27 490.54-26.27L490.54-26.27Q490.05-26.15 490.05-25.88L490.05-25.88 490.05-24.95Q490.05-24.24 490.12-22.83 490.19-21.41 490.19-20.7ZM508.84-16.21L508.84-17.68 508.8-18.21Q509.26-22.19 509.67-23.75L509.67-23.75Q510.63-27.42 513.09-29.88L513.09-29.88 513.68-30.47Q514.85-31.84 517.24-32.81L517.24-32.81 518.17-32.81Q520.56-33.81 526.03-34.67L526.03-34.67Q527.4-34.67 528.9-34.46 530.4-34.25 532.23-33.78 534.06-33.3 535.76-32.26 537.46-31.23 538.58-29.79L538.58-29.79 538.58-29.1Q542.58-24.1 542.58-17.87L542.58-17.87Q542.58-10.86 539.36-6.45L539.36-6.45 538.39-5.22Q537.26-3.83 535.59-2.83 533.92-1.83 532.04-1.31 530.16-0.78 528.44-0.56 526.72-0.34 525.01-0.34L525.01-0.34Q522.49-0.34 520.21-0.94 517.93-1.54 515.94-2.81 513.95-4.08 512.43-5.93 510.92-7.79 509.98-10.41 509.04-13.04 508.84-16.21L508.84-16.21ZM522.27-18.55L522.27-17.48Q522.27-8.89 525.54-8.89L525.54-8.89Q526.45-8.89 527.12-9.23 527.79-9.57 528.2-10.28 528.62-10.99 528.89-11.72 529.16-12.45 529.27-13.55 529.38-14.65 529.41-15.48 529.45-16.31 529.45-17.48L529.45-17.48 529.45-18.36Q529.45-19.63 529.3-20.8 529.16-21.97 528.8-23.16 528.45-24.34 527.72-25.06 526.98-25.78 525.93-25.78L525.93-25.78Q522.27-25.78 522.27-18.55L522.27-18.55ZM561.38-33.5L563.87-33.5Q564.04-33.54 564.42-33.58 564.8-33.62 564.9-33.64L564.9-33.64 567.8-18.77 571.61-33.69 588.77-33.69Q589.46-33.69 589.46-30.81L589.46-30.81 589.46-2.05Q589.41-1.66 589.24-1.42 589.07-1.17 588.74-1.09 588.41-1 588.22-0.99 588.04-0.98 587.6-0.98L587.6-0.98Q586.06-0.98 582.93-0.93 579.79-0.88 578.23-0.88L578.23-0.88Q577.01-1.64 577.01-6.49L577.01-6.49Q577.01-7.71 577.05-9.68 577.1-11.65 577.1-12.6L577.1-12.6 577.1-14.75Q577.1-14.92 577.08-15.3 577.05-15.67 577.05-15.87L577.05-15.87Q577.05-16.7 577.15-18.55L577.15-18.55 577.15-16.7Q576.81-15.26 575.83-12.3 574.86-9.35 574.52-7.91L574.52-7.91 573.05-1.66Q572.66-0.98 570.61-0.98L570.61-0.98Q569.61-0.98 568.01-1.03 566.41-1.07 565.58-1.07L565.58-1.07Q565.34-1.07 564.75-1.05 564.16-1.03 564.02-1.03L564.02-1.03Q563.24-1.03 562.89-1.22 562.55-1.42 562.41-2L562.41-2Q560.11-12.18 559.23-16.41L559.23-16.41 558.35-20.61Q558.01-13.5 558.01-5.57L558.01-5.57 558.01-1.27 546.49-1.27Q546.49-1.42 546.56-1.9 546.63-2.39 546.63-2.44L546.63-2.44Q546.44-7.13 546.44-14.01L546.44-14.01Q546.44-16.09 546.41-19.54 546.39-23 546.39-24.32L546.39-24.32 546.39-32.96Q546.39-33.28 546.49-33.44 546.59-33.59 546.98-33.89L546.98-33.89 549.22-33.89Q550.44-33.89 550.98-33.94L550.98-33.94Q553.45-33.94 556.97-33.72 560.5-33.5 561.38-33.5L561.38-33.5ZM577.15-18.75L577.15-18.7 577.15-18.75ZM592.48-16.21L592.48-17.68 592.43-18.21Q592.9-22.19 593.31-23.75L593.31-23.75Q594.26-27.42 596.73-29.88L596.73-29.88 597.32-30.47Q598.49-31.84 600.88-32.81L600.88-32.81 601.81-32.81Q604.2-33.81 609.67-34.67L609.67-34.67Q611.04-34.67 612.54-34.46 614.04-34.25 615.87-33.78 617.7-33.3 619.4-32.26 621.1-31.23 622.22-29.79L622.22-29.79 622.22-29.1Q626.22-24.1 626.22-17.87L626.22-17.87Q626.22-10.86 623-6.45L623-6.45 622.02-5.22Q620.9-3.83 619.23-2.83 617.56-1.83 615.68-1.31 613.8-0.78 612.07-0.56 610.35-0.34 608.64-0.34L608.64-0.34Q606.13-0.34 603.85-0.94 601.56-1.54 599.57-2.81 597.58-4.08 596.07-5.93 594.56-7.79 593.62-10.41 592.68-13.04 592.48-16.21L592.48-16.21ZM605.91-18.55L605.91-17.48Q605.91-8.89 609.18-8.89L609.18-8.89Q610.08-8.89 610.76-9.23 611.43-9.57 611.84-10.28 612.26-10.99 612.53-11.72 612.79-12.45 612.9-13.55 613.01-14.65 613.05-15.48 613.09-16.31 613.09-17.48L613.09-17.48 613.09-18.36Q613.09-19.63 612.94-20.8 612.79-21.97 612.44-23.16 612.09-24.34 611.35-25.06 610.62-25.78 609.57-25.78L609.57-25.78Q605.91-25.78 605.91-18.55L605.91-18.55ZM648.58-24.12L648.58-24.12Q647.92-24.12 647.51-24.32 647.09-24.51 646.85-24.8 646.61-25.1 646.3-25.39 645.99-25.68 645.34-25.88 644.68-26.07 643.65-26.07L643.65-26.07Q643.33-26.07 642.88-26.01 642.43-25.95 641.89-25.68 641.36-25.42 641.36-25L641.36-25Q641.36-24.54 641.81-24.21 642.26-23.88 642.83-23.74 643.41-23.61 644.13-23.43 644.85-23.24 645.14-23.1L645.14-23.1 648.73-22.22Q650.32-21.78 651.59-21.29 652.86-20.8 654.28-19.96 655.71-19.12 656.66-18.09 657.62-17.07 658.25-15.52 658.89-13.96 658.89-12.11L658.89-12.11Q658.89-9.86 658.3-8.11L658.3-8.11 658.3-8.15Q657.79-6.59 656.86-5.36 655.93-4.13 654.66-3.31 653.39-2.49 652.1-1.94 650.8-1.39 649.11-1.06 647.41-0.73 646.08-0.57 644.75-0.42 643.02-0.29L643.02-0.29Q635.33-0.68 632.71-2.73L632.71-2.73 632.71-3.03Q630.49-4.69 629.43-6.64 628.37-8.59 628.17-11.04L628.17-11.04Q628.17-11.62 628.71-11.62L628.71-11.62Q628.86-11.62 629.15-11.6 629.44-11.57 629.59-11.57L629.59-11.57 632.08-11.57Q632.42-11.62 633.06-11.62L633.06-11.62 633.69-11.62Q633.89-11.62 634.03-11.57L634.03-11.57Q635.45-11.62 638.87-11.62L638.87-11.62 639.99-11.62Q640.48-11.62 640.75-11.33 641.01-11.04 641.17-10.61 641.33-10.18 641.54-9.75 641.75-9.33 642.28-9.03 642.82-8.74 643.7-8.74L643.7-8.74Q644.65-8.74 645.42-9.24 646.19-9.74 646.19-10.69L646.19-10.69Q646.19-11.13 645.78-11.52 645.36-11.91 644.53-12.23 643.7-12.55 643.05-12.74 642.41-12.94 641.31-13.21 640.21-13.48 639.89-13.57L639.89-13.57 638.43-13.57Q633.13-15.14 630.8-17.54 628.47-19.95 628.47-23.63L628.47-23.63Q628.47-26.07 629.38-28.03 630.3-29.98 631.8-31.23 633.3-32.47 635.33-33.31 637.35-34.16 639.45-34.51 641.55-34.86 643.8-34.86L643.8-34.86Q647.78-34.86 651.18-33.53 654.59-32.2 656.35-30.08L656.35-30.08Q656.98-29.44 657.37-28.47 657.76-27.49 657.87-26.92 657.98-26.34 658.15-25L658.15-25 657.47-24.02 653.32-24.02Q652.64-24.02 651.05-24.07 649.46-24.12 648.58-24.12ZM660.05-16.21L660.05-17.68 660.01-18.21Q660.47-22.19 660.88-23.75L660.88-23.75Q661.84-27.42 664.3-29.88L664.3-29.88 664.89-30.47Q666.06-31.84 668.45-32.81L668.45-32.81 669.38-32.81Q671.77-33.81 677.24-34.67L677.24-34.67Q678.61-34.67 680.11-34.46 681.61-34.25 683.44-33.78 685.27-33.3 686.97-32.26 688.67-31.23 689.79-29.79L689.79-29.79 689.79-29.1Q693.8-24.1 693.8-17.87L693.8-17.87Q693.8-10.86 690.57-6.45L690.57-6.45 689.6-5.22Q688.47-3.83 686.8-2.83 685.13-1.83 683.25-1.31 681.37-0.78 679.65-0.56 677.93-0.34 676.22-0.34L676.22-0.34Q673.7-0.34 671.42-0.94 669.14-1.54 667.15-2.81 665.16-4.08 663.64-5.93 662.13-7.79 661.19-10.41 660.25-13.04 660.05-16.21L660.05-16.21ZM673.48-18.55L673.48-17.48Q673.48-8.89 676.75-8.89L676.75-8.89Q677.66-8.89 678.33-9.23 679-9.57 679.42-10.28 679.83-10.99 680.1-11.72 680.37-12.45 680.48-13.55 680.59-14.65 680.62-15.48 680.66-16.31 680.66-17.48L680.66-17.48 680.66-18.36Q680.66-19.63 680.51-20.8 680.37-21.97 680.01-23.16 679.66-24.34 678.93-25.06 678.19-25.78 677.14-25.78L677.14-25.78Q673.48-25.78 673.48-18.55L673.48-18.55ZM712.59-33.5L715.08-33.5Q715.25-33.54 715.63-33.58 716.01-33.62 716.11-33.64L716.11-33.64 719.01-18.77 722.82-33.69 739.98-33.69Q740.67-33.69 740.67-30.81L740.67-30.81 740.67-2.05Q740.62-1.66 740.45-1.42 740.28-1.17 739.95-1.09 739.62-1 739.43-0.99 739.25-0.98 738.81-0.98L738.81-0.98Q737.27-0.98 734.14-0.93 731-0.88 729.44-0.88L729.44-0.88Q728.22-1.64 728.22-6.49L728.22-6.49Q728.22-7.71 728.27-9.68 728.31-11.65 728.31-12.6L728.31-12.6 728.31-14.75Q728.31-14.92 728.29-15.3 728.27-15.67 728.27-15.87L728.27-15.87Q728.27-16.7 728.36-18.55L728.36-18.55 728.36-16.7Q728.02-15.26 727.04-12.3 726.07-9.35 725.73-7.91L725.73-7.91 724.26-1.66Q723.87-0.98 721.82-0.98L721.82-0.98Q720.82-0.98 719.22-1.03 717.62-1.07 716.79-1.07L716.79-1.07Q716.55-1.07 715.96-1.05 715.37-1.03 715.23-1.03L715.23-1.03Q714.45-1.03 714.11-1.22 713.76-1.42 713.62-2L713.62-2Q711.32-12.18 710.44-16.41L710.44-16.41 709.56-20.61Q709.22-13.5 709.22-5.57L709.22-5.57 709.22-1.27 697.7-1.27Q697.7-1.42 697.77-1.9 697.85-2.39 697.85-2.44L697.85-2.44Q697.65-7.13 697.65-14.01L697.65-14.01Q697.65-16.09 697.63-19.54 697.6-23 697.6-24.32L697.6-24.32 697.6-32.96Q697.6-33.28 697.7-33.44 697.8-33.59 698.19-33.89L698.19-33.89 700.43-33.89Q701.65-33.89 702.19-33.94L702.19-33.94Q704.66-33.94 708.18-33.72 711.71-33.5 712.59-33.5L712.59-33.5ZM728.36-18.75L728.36-18.7 728.36-18.75ZM745.25-1.81L745.25-31.54Q745.25-33.01 745.38-33.25L745.38-33.25Q745.6-33.59 746.09-33.59L746.09-33.59 746.67-33.59Q747.06-33.59 747.21-33.54L747.21-33.54 748.48-33.54Q750.94-33.54 755.94-33.67 760.93-33.79 763.42-33.79L763.42-33.79 769.91-33.79Q770.55-33.72 770.55-33.15L770.55-33.15 770.55-25Q770.52-24.85 770.46-24.74 770.4-24.63 770.36-24.6 770.33-24.56 770.13-24.43 769.94-24.29 769.86-24.22L769.86-24.22 758.54-24.22 758.54-21.19 759.61-21.19Q761.03-21.19 763.93-21.29 766.84-21.39 768.4-21.39L768.4-21.39Q769.08-21.39 769.33-21.12 769.57-20.85 769.57-20.36L769.57-20.36Q769.57-20.24 769.52-19.95 769.47-19.65 769.47-19.53L769.47-19.53 769.47-18.6Q769.47-18.51 769.5-18.2 769.52-17.9 769.52-17.68L769.52-17.68 769.52-16.99Q769.52-16.46 769.57-15.92 769.62-15.38 769.62-14.99L769.62-14.99 769.62-14.36Q769.5-14.06 769.42-13.96 769.35-13.87 769.18-13.87L769.18-13.87 769.18-13.92Q768.28-13.92 766.07-13.79 763.86-13.67 762.54-13.67L762.54-13.67 758.63-13.67 758.63-10.55Q758.83-10.55 759.22-10.52 759.61-10.5 759.81-10.5L759.81-10.5Q760.9-10.5 763.05-10.57 765.2-10.64 766.15-10.64L766.15-10.64 769.28-10.64Q770.55-10.64 770.89-10.35L770.89-10.35Q771.01-10.21 771.09-10.06L771.09-10.06 771.09-2.25Q771.09-1.73 770.89-1.46 770.69-1.2 770.16-1.17L770.16-1.17 745.99-1.17 745.25-1.81ZM804.48-0.2L804.48-0.2Q800.4-0.2 797.15-1.57 793.91-2.95 791.83-5.4 789.76-7.84 788.67-11.1 787.58-14.36 787.58-18.21L787.58-18.21 787.58-18.55Q787.61-18.73 787.67-19.4 787.73-20.07 787.74-20.28 787.75-20.48 787.83-21.07 787.9-21.66 787.95-21.92 788-22.19 788.08-22.71 788.17-23.22 788.28-23.55 788.39-23.88 788.54-24.34 788.68-24.8 788.85-25.22 789.02-25.63 789.24-26.07L789.24-26.07 789.24-26.03Q790.37-28.37 792.08-30.08 793.79-31.79 795.84-32.73 797.89-33.67 800.04-34.09 802.18-34.52 804.58-34.52L804.58-34.52Q807.6-34.52 810.04-33.92 812.49-33.33 814.1-32.32 815.71-31.32 816.86-29.9 818-28.47 818.59-26.95 819.18-25.44 819.42-23.68L819.42-23.68 819.42-21.58Q819.35-21.24 819.05-21.06 818.76-20.87 818.42-20.84 818.08-20.8 817.47-20.8L817.47-20.8 807.02-20.8 807.02-22.9Q806.9-23.73 806.31-24.41 805.72-25.1 804.87-25.1L804.87-25.1Q804.11-25.1 803.54-24.78 802.96-24.46 802.64-23.94 802.31-23.41 802.1-22.72 801.89-22.02 801.83-21.25 801.77-20.48 801.73-19.69 801.7-18.9 801.74-18.19L801.74-18.19Q801.74-17.7 801.74-17.48L801.74-17.48 801.74-14.75Q801.74-14.14 801.81-13.56 801.87-12.99 802.1-12.08 802.33-11.18 802.92-10.62 803.5-10.06 804.38-10.06L804.38-10.06Q805.31-10.06 805.76-10.84 806.21-11.62 806.52-12.72 806.82-13.82 807.21-14.21L807.21-14.21Q808.19-14.21 810.14-14.18 812.1-14.16 813.07-14.16L813.07-14.16Q813.76-14.16 815.1-14.18 816.44-14.21 817.12-14.21L817.12-14.21 818.93-14.21Q819.74-14.21 819.81-13.23L819.81-13.23 819.81-12.3Q819.27-7.45 816.22-4.47 813.17-1.49 808.58-0.68L808.58-0.68 808.58-0.54Q806.94-0.2 804.48-0.2ZM821.13-16.21L821.13-17.68 821.08-18.21Q821.54-22.19 821.96-23.75L821.96-23.75Q822.91-27.42 825.37-29.88L825.37-29.88 825.96-30.47Q827.13-31.84 829.52-32.81L829.52-32.81 830.45-32.81Q832.85-33.81 838.31-34.67L838.31-34.67Q839.68-34.67 841.18-34.46 842.68-34.25 844.52-33.78 846.35-33.3 848.04-32.26 849.74-31.23 850.86-29.79L850.86-29.79 850.86-29.1Q854.87-24.1 854.87-17.87L854.87-17.87Q854.87-10.86 851.64-6.45L851.64-6.45 850.67-5.22Q849.54-3.83 847.87-2.83 846.2-1.83 844.32-1.31 842.44-0.78 840.72-0.56 839-0.34 837.29-0.34L837.29-0.34Q834.77-0.34 832.49-0.94 830.21-1.54 828.22-2.81 826.23-4.08 824.72-5.93 823.2-7.79 822.26-10.41 821.32-13.04 821.13-16.21L821.13-16.21ZM834.55-18.55L834.55-17.48Q834.55-8.89 837.83-8.89L837.83-8.89Q838.73-8.89 839.4-9.23 840.07-9.57 840.49-10.28 840.9-10.99 841.17-11.72 841.44-12.45 841.55-13.55 841.66-14.65 841.7-15.48 841.73-16.31 841.73-17.48L841.73-17.48 841.73-18.36Q841.73-19.63 841.59-20.8 841.44-21.97 841.08-23.16 840.73-24.34 840-25.06 839.27-25.78 838.22-25.78L838.22-25.78Q834.55-25.78 834.55-18.55L834.55-18.55ZM882.35-33.59L890.7-33.59Q891-33.5 891.16-32.75 891.31-32.01 891.34-30.88 891.36-29.76 891.34-28.74 891.31-27.71 891.28-26.64 891.24-25.56 891.24-25.29L891.24-25.29Q891.19-24.32 891.19-22.56L891.19-22.56 891.19-19.97Q891.19-18.26 891.24-15.28 891.29-12.3 891.29-10.89L891.29-10.89 891.29-2Q891.19-1.17 889.92-1.17L889.92-1.17 876.25-1.17Q875.81-1.27 875.13-3.22L875.13-3.22Q874.66-4.52 873.58-7.47 872.49-10.42 871.71-12.66 870.93-14.89 870.29-16.99L870.29-16.99 870.29-17.14 870.29-16.99Q870.22-15.38 870.15-12.19 870.07-9.01 870-7.42L870-7.42 870-2.44Q870-1.71 869.83-1.43 869.66-1.15 868.93-0.98L868.93-0.98 858.87-0.98 857.79-2.05Q857.92-6.1 857.99-14.75 858.06-23.39 858.18-27.54L858.18-27.54 858.18-32.81Q858.43-33.69 858.77-33.69L858.77-33.69 858.77-33.59Q860.43-33.59 863.98-33.69 867.54-33.79 869.32-33.79L869.32-33.79 873.42-33.79Q873.44-33.79 873.49-33.76L873.49-33.76Q873.93-33.59 873.98-33.37L873.98-33.37 874-33.2Q874.88-30.83 875.79-28.3 876.69-25.76 877.94-22.16 879.18-18.55 879.67-17.19L879.67-17.19 879.67-20.8Q880.16-29.39 880.16-33.01L880.16-33.01Q880.16-33.4 880.69-33.5 881.23-33.59 882.35-33.59L882.35-33.59ZM896.71-0.98L896.07-2.05 896.07-33.01Q896.07-33.4 896.32-33.58 896.56-33.76 896.77-33.78 896.98-33.79 897.54-33.79L897.54-33.79 920.58-33.79Q920.78-33.79 920.9-33.73 921.02-33.67 921.1-33.61 921.17-33.54 921.19-33.41 921.22-33.28 921.23-33.2 921.24-33.13 921.23-32.98 921.22-32.84 921.22-32.81L921.22-32.81 921.22-24.51 909.79-24.51 909.79-23.63Q909.79-23.34 909.89-22.07L909.89-22.07 912.19-22.07Q912.53-22.09 913.42-22.23 914.31-22.36 914.82-22.36L914.82-22.36 916.82-22.36Q917.51-22.36 917.85-22.41L917.85-22.41Q918.85-22.41 919.68-22.17 920.51-21.92 920.58-21.63L920.58-21.63 920.58-20.21Q920.58-19.75 920.54-18.79 920.49-17.82 920.49-17.33L920.49-17.33 920.49-15.14Q920.54-14.94 920.54-14.45L920.54-14.45 920.54-13.48Q920.44-12.7 919.02-12.7L919.02-12.7 917.46-12.7Q916.63-12.7 915.08-12.65 913.53-12.6 912.67-12.6L912.67-12.6 909.94-12.6 909.94-0.98 896.71-0.98ZM921.9-16.21L921.9-17.68 921.85-18.21Q922.32-22.19 922.73-23.75L922.73-23.75Q923.68-27.42 926.15-29.88L926.15-29.88 926.73-30.47Q927.91-31.84 930.3-32.81L930.3-32.81 931.23-32.81Q933.62-33.81 939.09-34.67L939.09-34.67Q940.45-34.67 941.96-34.46 943.46-34.25 945.29-33.78 947.12-33.3 948.82-32.26 950.51-31.23 951.64-29.79L951.64-29.79 951.64-29.1Q955.64-24.1 955.64-17.87L955.64-17.87Q955.64-10.86 952.42-6.45L952.42-6.45 951.44-5.22Q950.32-3.83 948.65-2.83 946.97-1.83 945.09-1.31 943.21-0.78 941.49-0.56 939.77-0.34 938.06-0.34L938.06-0.34Q935.55-0.34 933.26-0.94 930.98-1.54 928.99-2.81 927-4.08 925.49-5.93 923.98-7.79 923.04-10.41 922.1-13.04 921.9-16.21L921.9-16.21ZM935.33-18.55L935.33-17.48Q935.33-8.89 938.6-8.89L938.6-8.89Q939.5-8.89 940.17-9.23 940.85-9.57 941.26-10.28 941.68-10.99 941.94-11.72 942.21-12.45 942.32-13.55 942.43-14.65 942.47-15.48 942.51-16.31 942.51-17.48L942.51-17.48 942.51-18.36Q942.51-19.63 942.36-20.8 942.21-21.97 941.86-23.16 941.5-24.34 940.77-25.06 940.04-25.78 938.99-25.78L938.99-25.78Q935.33-25.78 935.33-18.55L935.33-18.55ZM959.15-0.98L959.15-33.59 963.69-33.59Q965.79-33.59 970.41-33.69 975.02-33.79 977.32-33.79L977.32-33.79Q979.3-33.79 981.02-33.57 982.74-33.35 984.41-32.76 986.08-32.18 987.27-31.27 988.45-30.37 989.18-28.89 989.92-27.42 989.92-25.49L989.92-25.49Q989.92-22.83 988.67-20.95 987.42-19.07 984.84-17.77L984.84-17.77Q985.86-17.33 986.62-16.63 987.38-15.92 987.78-15.41 988.18-14.89 988.56-13.68 988.94-12.48 989.01-12.1 989.09-11.72 989.33-10.23L989.33-10.23Q989.4-9.89 989.43-9.72L989.43-9.72Q989.52-8.74 990.26-6.14 990.99-3.54 990.99-2.15L990.99-2.15Q990.99-1.27 990.45-1.27L990.45-1.27Q988.99-1.27 986.02-1.25 983.05-1.22 981.61-1.22L981.61-1.22Q981.03-1.27 979.86-1.27L979.86-1.27 978.2-1.27Q977.71-1.42 977.24-2.78 976.78-4.15 976.59-5.86L976.59-5.86 976.05-10.21Q975.9-10.74 975.82-10.97 975.73-11.21 975.51-11.54 975.29-11.87 974.91-11.99 974.53-12.11 973.95-12.11L973.95-12.11 972.83-12.11 972.83-2.34Q972.83-2.27 972.83-2.11 972.83-1.95 972.83-1.89 972.83-1.83 972.83-1.71 972.83-1.59 972.8-1.53 972.78-1.46 972.75-1.37 972.73-1.27 972.69-1.23 972.65-1.2 972.59-1.14 972.53-1.07 972.45-1.05 972.36-1.03 972.25-1 972.14-0.98 972-0.98L972-0.98 959.15-0.98ZM972.97-20.7L972.97-20.7Q973.02-20.65 973.12-20.5 973.22-20.34 973.31-20.24 973.41-20.14 973.51-20.12L973.51-20.12Q974.24-20.12 974.97-20.28 975.71-20.43 976.48-20.8 977.24-21.17 977.72-21.92 978.2-22.68 978.2-23.73L978.2-23.73Q978.2-26.27 973.31-26.27L973.31-26.27Q972.83-26.15 972.83-25.88L972.83-25.88 972.83-24.95Q972.83-24.24 972.9-22.83 972.97-21.41 972.97-20.7ZM1008.66-33.5L1011.15-33.5Q1011.32-33.54 1011.7-33.58 1012.08-33.62 1012.18-33.64L1012.18-33.64 1015.08-18.77 1018.89-33.69 1036.06-33.69Q1036.74-33.69 1036.74-30.81L1036.74-30.81 1036.74-2.05Q1036.69-1.66 1036.52-1.42 1036.35-1.17 1036.02-1.09 1035.69-1 1035.51-0.99 1035.32-0.98 1034.88-0.98L1034.88-0.98Q1033.35-0.98 1030.21-0.93 1027.07-0.88 1025.51-0.88L1025.51-0.88Q1024.29-1.64 1024.29-6.49L1024.29-6.49Q1024.29-7.71 1024.34-9.68 1024.39-11.65 1024.39-12.6L1024.39-12.6 1024.39-14.75Q1024.39-14.92 1024.36-15.3 1024.34-15.67 1024.34-15.87L1024.34-15.87Q1024.34-16.7 1024.43-18.55L1024.43-18.55 1024.43-16.7Q1024.09-15.26 1023.12-12.3 1022.14-9.35 1021.8-7.91L1021.8-7.91 1020.33-1.66Q1019.94-0.98 1017.89-0.98L1017.89-0.98Q1016.89-0.98 1015.29-1.03 1013.69-1.07 1012.86-1.07L1012.86-1.07Q1012.62-1.07 1012.03-1.05 1011.45-1.03 1011.3-1.03L1011.3-1.03Q1010.52-1.03 1010.18-1.22 1009.83-1.42 1009.69-2L1009.69-2Q1007.39-12.18 1006.51-16.41L1006.51-16.41 1005.64-20.61Q1005.29-13.5 1005.29-5.57L1005.29-5.57 1005.29-1.27 993.77-1.27Q993.77-1.42 993.84-1.9 993.92-2.39 993.92-2.44L993.92-2.44Q993.72-7.13 993.72-14.01L993.72-14.01Q993.72-16.09 993.7-19.54 993.67-23 993.67-24.32L993.67-24.32 993.67-32.96Q993.67-33.28 993.77-33.44 993.87-33.59 994.26-33.89L994.26-33.89 996.5-33.89Q997.73-33.89 998.26-33.94L998.26-33.94Q1000.73-33.94 1004.26-33.72 1007.78-33.5 1008.66-33.5L1008.66-33.5ZM1024.43-18.75L1024.43-18.7 1024.43-18.75ZM1060.27-6.05L1052.75-6.05Q1052.58-5.49 1052.42-4.58 1052.26-3.66 1052.13-3.14 1052-2.61 1051.68-2.04 1051.36-1.46 1050.71-1.2 1050.07-0.93 1049.04-0.93L1049.04-0.93 1038.49-0.93 1038.49-1.76Q1039.79-5.64 1042.27-13.67 1044.74-21.7 1046.11-25.83L1046.11-25.83 1046.11-25.78Q1046.94-28.15 1048.55-33.2L1048.55-33.2Q1048.58-33.25 1048.63-33.33L1048.63-33.33Q1048.85-33.69 1049.04-33.89L1049.04-33.89 1062.22-33.79Q1065.59-33.79 1065.94-33.2L1065.94-33.2 1065.94-32.57Q1065.98-32.35 1066.47-31.45L1066.47-31.45Q1068.84-24.19 1069.94-20.9L1069.94-20.9 1069.94-20.61Q1070.04-19.9 1070.38-18.99 1070.72-18.09 1071.2-17.05 1071.67-16.02 1071.87-15.43L1071.87-15.43 1072.84-11.91Q1073.7-9.08 1075.36-4.35L1075.36-4.35 1075.36-4.39 1075.36-3.91Q1075.43-3.56 1075.73-2.98 1076.02-2.39 1076.09-2.15L1076.09-2.15Q1076.09-1.46 1075.81-1.27 1075.53-1.07 1074.72-1.07L1074.72-1.07 1063.4-1.07Q1062.98-1.12 1062.86-1.15 1062.74-1.17 1062.48-1.25 1062.22-1.32 1062.11-1.44 1062-1.56 1061.98-1.76L1061.98-1.76 1061.05-5.47Q1060.96-5.93 1060.86-5.99 1060.76-6.05 1060.27-6.05L1060.27-6.05ZM1053.92-14.65L1053.92-14.75 1053.92-14.65ZM1059.29-17.68L1059.29-17.68Q1059.15-18.36 1058.87-19.89 1058.59-21.41 1058.32-22.55 1058.05-23.68 1057.73-24.66L1057.73-24.66 1057.73-25.83Q1057.54-26.34 1057.05-26.56L1057.05-26.56 1057.05-26.51Q1056.46-26.39 1055.88-23.24L1055.88-23.24 1055.88-22.07Q1055.83-21.9 1055.66-21.75 1055.49-21.61 1055.49-21.58L1055.49-21.58Q1054.68-18.02 1054.17-15.82L1054.17-15.82Q1054.17-15.58 1054.05-14.97 1053.92-14.36 1053.92-14.26L1053.92-14.26 1059.98-14.26Q1059.98-14.89 1059.54-16.55L1059.54-16.55 1059.54-17.09Q1059.51-17.16 1059.4-17.37 1059.29-17.58 1059.29-17.68ZM1075.16-24.71L1075.16-24.71 1075.16-33.5 1103.58-33.5Q1103.97-33.42 1104.07-33.19 1104.17-32.96 1104.17-32.52L1104.17-32.52 1104.17-24.71Q1104.12-24.12 1103.48-24.12L1103.48-24.12 1096.55-24.12 1096.55-1.66Q1096.55-1.64 1096.52-1.54 1096.5-1.44 1096.5-1.42 1096.5-1.39 1096.48-1.32 1096.45-1.25 1096.43-1.22 1096.4-1.2 1096.38-1.14 1096.35-1.07 1096.32-1.06 1096.28-1.05 1096.22-1.01 1096.16-0.98 1096.1-0.95 1096.04-0.93 1095.95-0.92 1095.86-0.9 1095.77-0.88L1095.77-0.88 1094.2-0.88Q1091.08-0.88 1091.08-1.07L1091.08-1.07Q1090.88-1.07 1090.49-1.05 1090.1-1.03 1089.91-1.03L1089.91-1.03 1087.95-1.03Q1087.39-1.03 1086.36-1 1085.32-0.98 1084.73-0.98L1084.73-0.98 1083.36-0.98 1082.39-1.66 1082.39-6.93Q1082.41-8.35 1082.6-12.99 1082.78-17.63 1082.78-20.31L1082.78-20.31 1082.78-20.95Q1082.78-21.14 1082.8-21.56 1082.83-21.97 1082.83-22.17L1082.83-22.17Q1082.83-22.39 1082.8-23.06 1082.78-23.73 1082.78-23.93L1082.78-23.93 1076.68-23.93Q1076.14-23.93 1075.65-24.11 1075.16-24.29 1075.16-24.71ZM1119.1-0.93L1105.73-0.93 1105.73-33.01Q1105.75-33.2 1106.12-33.36 1106.48-33.52 1106.56-33.59L1106.56-33.59 1119.69-33.59 1119.69-1.81Q1119.57-1.29 1119.46-1.11 1119.35-0.93 1119.1-0.93L1119.1-0.93ZM1122.62-16.21L1122.62-17.68 1122.57-18.21Q1123.03-22.19 1123.45-23.75L1123.45-23.75Q1124.4-27.42 1126.87-29.88L1126.87-29.88 1127.45-30.47Q1128.62-31.84 1131.02-32.81L1131.02-32.81 1131.94-32.81Q1134.34-33.81 1139.81-34.67L1139.81-34.67Q1141.17-34.67 1142.67-34.46 1144.18-34.25 1146.01-33.78 1147.84-33.3 1149.53-32.26 1151.23-31.23 1152.35-29.79L1152.35-29.79 1152.35-29.1Q1156.36-24.1 1156.36-17.87L1156.36-17.87Q1156.36-10.86 1153.14-6.45L1153.14-6.45 1152.16-5.22Q1151.04-3.83 1149.36-2.83 1147.69-1.83 1145.81-1.31 1143.93-0.78 1142.21-0.56 1140.49-0.34 1138.78-0.34L1138.78-0.34Q1136.27-0.34 1133.98-0.94 1131.7-1.54 1129.71-2.81 1127.72-4.08 1126.21-5.93 1124.69-7.79 1123.75-10.41 1122.81-13.04 1122.62-16.21L1122.62-16.21ZM1136.05-18.55L1136.05-17.48Q1136.05-8.89 1139.32-8.89L1139.32-8.89Q1140.22-8.89 1140.89-9.23 1141.56-9.57 1141.98-10.28 1142.39-10.99 1142.66-11.72 1142.93-12.45 1143.04-13.55 1143.15-14.65 1143.19-15.48 1143.22-16.31 1143.22-17.48L1143.22-17.48 1143.22-18.36Q1143.22-19.63 1143.08-20.8 1142.93-21.97 1142.58-23.16 1142.22-24.34 1141.49-25.06 1140.76-25.78 1139.71-25.78L1139.71-25.78Q1136.05-25.78 1136.05-18.55L1136.05-18.55ZM1183.85-33.59L1192.2-33.59Q1192.49-33.5 1192.65-32.75 1192.81-32.01 1192.83-30.88 1192.85-29.76 1192.83-28.74 1192.81-27.71 1192.77-26.64 1192.73-25.56 1192.73-25.29L1192.73-25.29Q1192.68-24.32 1192.68-22.56L1192.68-22.56 1192.68-19.97Q1192.68-18.26 1192.73-15.28 1192.78-12.3 1192.78-10.89L1192.78-10.89 1192.78-2Q1192.68-1.17 1191.41-1.17L1191.41-1.17 1177.74-1.17Q1177.3-1.27 1176.62-3.22L1176.62-3.22Q1176.16-4.52 1175.07-7.47 1173.98-10.42 1173.2-12.66 1172.42-14.89 1171.78-16.99L1171.78-16.99 1171.78-17.14 1171.78-16.99Q1171.71-15.38 1171.64-12.19 1171.57-9.01 1171.49-7.42L1171.49-7.42 1171.49-2.44Q1171.49-1.71 1171.32-1.43 1171.15-1.15 1170.42-0.98L1170.42-0.98 1160.36-0.98 1159.28-2.05Q1159.41-6.1 1159.48-14.75 1159.55-23.39 1159.68-27.54L1159.68-27.54 1159.68-32.81Q1159.92-33.69 1160.26-33.69L1160.26-33.69 1160.26-33.59Q1161.92-33.59 1165.47-33.69 1169.03-33.79 1170.81-33.79L1170.81-33.79 1174.91-33.79Q1174.93-33.79 1174.98-33.76L1174.98-33.76Q1175.42-33.59 1175.47-33.37L1175.47-33.37 1175.5-33.2Q1176.37-30.83 1177.28-28.3 1178.18-25.76 1179.43-22.16 1180.67-18.55 1181.16-17.19L1181.16-17.19 1181.16-20.8Q1181.65-29.39 1181.65-33.01L1181.65-33.01Q1181.65-33.4 1182.19-33.5 1182.72-33.59 1183.85-33.59L1183.85-33.59Z" opacity="1" transform="matrix(1,0,0,1,0,0)" fill="#ffffff" class="slogan-text-1" data-fill-palette-color="secondary" id="text-1"></path></svg></g></svg></g></svg></g></svg></g></svg></g></svg></g></svg></g><g mask="url(#400c2bfd-c367-4764-8919-8163536ce9a7)"><g transform="matrix(2.4984970312770267, 0, 0, 2.4984970312770267, 162.7127900009912, 1.0000000000000142)"><svg xmlns="http://www.w3.org/2000/svg" xmlns:xlink="http://www.w3.org/1999/xlink" version="1.1" x="0" y="0" viewBox="33.9945068359375 1.1310009956359863 28.05463409423828 98.13899993896484" enable-background="new 0 0 100 100" xml:space="preserve" height="98.13899993896484" width="28.05463409423828" class="icon-none" data-fill-palette-color="accent" id="none"><path d="M62.044 51.959c-0.098-2.723-3.284-5.341-7.535-6.742 4.251-1.401 7.437-4.019 7.535-6.738 0.007-0.173 0.001-30.547-0.006-30.654-0.225-4.108-2.54-6.66-6.042-6.66-3.522 0-5.839 2.566-6.046 6.7-0.002 0.052-0.003 0.066 0.015 12.423l0.027 20.34c0.001 1.111-1.132 2.461-1.97 3.278-0.838-0.814-1.973-2.163-1.972-3.282l0.027-20.345c0.018-12.357 0.017-12.38 0.014-12.435-0.207-4.13-2.523-6.713-6.045-6.713-3.501 0-5.817 2.518-6.042 6.62-0.007 0.113-0.013 30.42-0.006 30.59 0.102 2.803 3.479 5.429 7.92 6.756-4.441 1.367-7.819 4.058-7.919 6.859-0.009 0.229-0.003 40.511 0.005 40.654 0.226 4.108 2.542 6.66 6.042 6.66 3.523 0 5.839-2.565 6.045-6.699 0.002-0.054 0.004-0.099-0.037-38.466l-0.004-4.298c-0.001-1.111 1.133-2.462 1.971-3.279 0.838 0.817 1.972 2.168 1.971 3.279l-0.004 4.298c-0.042 38.367-0.04 38.412-0.037 38.469 0.206 4.131 2.521 6.696 6.045 6.696 3.501 0 5.816-2.552 6.042-6.653C62.048 92.466 62.054 52.185 62.044 51.959zM60 17h-8c0-0.34 0-0.673 0-1h8c0.016 0 0-0.008 0-0.009C60 16.321 60 16.659 60 17zM51.965 20.284c-0.001-0.434-0.001-0.862-0.002-1.284h8.083c0.001 2.94 0.001 6.098 0.002 9h-8.072L51.965 20.284zM50.548 44.1c0.758-0.968 1.445-2.198 1.444-3.475L51.98 32h8.067c0 3.6-0.001 6.202-0.003 6.402C59.973 40.41 56.021 43.365 50.548 44.1zM55.996 3.164c3.415 0 3.967 3.335 4.044 4.734 0.002 0.12 0.003 2.608 0.005 6.11C60.029 14.008 60.016 14 60 14h-8.044c-0.006-3.542-0.009-5.938-0.009-6.04C52.02 6.518 52.559 3.164 55.996 3.164zM44.078 20.284L44.068 28H36c0-2.904 0-6.062 0-9h8.08C44.08 19.422 44.079 19.85 44.078 20.284zM44.083 17H36c0-0.338 0-0.672 0-1h8c0.03 0 0.055-0.015 0.084-0.017C44.084 16.316 44.083 16.654 44.083 17zM40.047 3.164c3.437 0 3.976 3.354 4.047 4.76 0.001 0.126-0.001 2.538-0.007 6.094C44.057 14.015 44.031 14 44 14h-8.002c0.001-3.486 0.002-5.956 0.003-6.066C36.08 6.5 36.632 3.164 40.047 3.164zM35.998 38.428c-0.001-0.208-0.002-2.82-0.002-6.428h8.067l-0.012 8.625c-0.001 1.276 0.687 2.507 1.444 3.476C40.022 43.365 36.07 40.413 35.998 38.428zM36 76c0-0.991 0-1.994 0-3h8.076c0.001 1.012 0.002 2.014 0.003 3H36zM44.081 78c0.002 2.544 0.005 4.927 0.007 7h-8.089c0-2.089-0.001-4.479-0.001-7H44.081zM36 71c0-1.35 0-2.69 0-4h8.069c0.001 1.325 0.003 2.664 0.004 4H36zM36 63c0-1.048 0-2.052 0-3h8.062c0.001 0.972 0.002 1.975 0.003 3H36zM44.095 92.474c-0.072 1.442-0.61 4.796-4.048 4.796-3.415 0-3.966-3.336-4.044-4.732C36.001 92.396 36 90.242 35.999 87h8.091C44.093 90.262 44.095 92.376 44.095 92.474zM44.051 49.809l0.004 4.298c0 0.599 0.001 1.236 0.002 1.894H36c0-2.411 0-3.924 0-3.969 0-2.008 4.022-4.963 9.496-5.697C44.738 47.302 44.049 48.532 44.051 49.809zM60 52.005c0 0.05 0 1.572 0 3.995h-8v4h8c0 0.948 0 1.952 0 3h-8.021c0.004-3.3 0.007-6.376 0.01-8.894l0.004-4.298c0.002-1.276-0.708-2.507-1.466-3.476C55.999 47.068 60 50.02 60 52.005zM51.963 78H60c0 2.521 0 4.912 0 7h-8.045C51.958 82.925 51.96 80.543 51.963 78zM51.965 76c0.001-0.986 0.002-1.988 0.003-3H60c0 1.006 0 2.009 0 3H51.965zM51.97 71c0.002-1.336 0.003-2.675 0.005-4H60c0 1.311 0 2.65 0 4H51.97zM55.996 97.27c-3.438 0-3.976-3.354-4.047-4.759-0.001-0.107 0.001-2.236 0.004-5.511h8.092c-0.001 3.228-0.002 5.367-0.004 5.5C59.963 93.934 59.41 97.27 55.996 97.27z" fill="#ffffff" data-fill-palette-color="accent"></path></svg></g></g></svg></g><defs></defs></svg><rect width="395.52" height="247.2" fill="none" stroke="none" visibility="hidden"></rect></g></svg></g></svg>